<?xml version="1.0" encoding="UTF-8" standalone="no"?>
<!DOCTYPE svg PUBLIC "-//W3C//DTD SVG 1.1//EN"
 "http://www.w3.org/Graphics/SVG/1.1/DTD/svg11.dtd">
<!-- Generated by graphviz version 12.2.1 (20241206.2353)
 -->
<!-- Title: Dependencies Pages: 1 -->
<svg width="749pt" height="669pt"
 viewBox="0.00 0.00 749.00 668.82" xmlns="http://www.w3.org/2000/svg" xmlns:xlink="http://www.w3.org/1999/xlink">
<g id="graph0" class="graph" transform="scale(1 1) rotate(0) translate(4 664.82)">
<title>Dependencies</title>
<polygon fill="white" stroke="none" points="-4,4 -4,-664.82 745,-664.82 745,4 -4,4"/>
<!-- integrate -->
<g id="node1" class="node">
<title>integrate</title>
<polygon fill="none" stroke="black" points="63.25,-320.82 0,-320.82 0,-284.82 63.25,-284.82 63.25,-320.82"/>
<text text-anchor="middle" x="31.62" y="-297.77" font-family="Times,serif" font-size="14.00">integrate</text>
</g>
<!-- clmm_pool -->
<g id="node2" class="node">
<title>clmm_pool</title>
<polygon fill="none" stroke="black" points="609.5,-312.82 530.5,-312.82 530.5,-276.82 609.5,-276.82 609.5,-312.82"/>
<text text-anchor="middle" x="570" y="-289.77" font-family="Times,serif" font-size="14.00">clmm_pool</text>
</g>
<!-- integrate&#45;&gt;clmm_pool -->
<g id="edge17" class="edge">
<title>integrate&#45;&gt;clmm_pool</title>
<path fill="none" stroke="black" d="M63.72,-318.3C74.67,-322.97 87.24,-327.48 99.25,-329.82 250.2,-359.24 432.87,-326.55 519.2,-307.12"/>
<polygon fill="black" stroke="black" points="519.79,-310.58 528.75,-304.93 518.23,-303.76 519.79,-310.58"/>
</g>
<!-- price_provider -->
<g id="node3" class="node">
<title>price_provider</title>
<polygon fill="none" stroke="black" points="741,-602.82 645.5,-602.82 645.5,-566.82 741,-566.82 741,-602.82"/>
<text text-anchor="middle" x="693.25" y="-579.77" font-family="Times,serif" font-size="14.00">price_provider</text>
</g>
<!-- integrate&#45;&gt;price_provider -->
<g id="edge2" class="edge">
<title>integrate&#45;&gt;price_provider</title>
<path fill="none" stroke="black" d="M33.44,-321.26C36.19,-363.66 48.07,-469.66 99.25,-537.82 161.14,-620.25 192.8,-660.82 295.88,-660.82 295.88,-660.82 295.88,-660.82 434.25,-660.82 510.1,-660.82 593.58,-630.22 644.46,-607.85"/>
<polygon fill="black" stroke="black" points="645.73,-611.12 653.42,-603.84 642.87,-604.73 645.73,-611.12"/>
</g>
<!-- liquidity_locker_v1 -->
<g id="node4" class="node">
<title>liquidity_locker_v1</title>
<polygon fill="none" stroke="black" points="494.5,-518.82 372,-518.82 372,-482.82 494.5,-482.82 494.5,-518.82"/>
<text text-anchor="middle" x="433.25" y="-495.77" font-family="Times,serif" font-size="14.00">liquidity_locker_v1</text>
</g>
<!-- integrate&#45;&gt;liquidity_locker_v1 -->
<g id="edge3" class="edge">
<title>integrate&#45;&gt;liquidity_locker_v1</title>
<path fill="none" stroke="black" d="M36.76,-320.89C44.17,-349.02 62.53,-402.96 99.25,-430.82 175.08,-488.35 287.38,-501.19 360.19,-502.81"/>
<polygon fill="black" stroke="black" points="359.96,-506.31 370.01,-502.95 360.07,-499.31 359.96,-506.31"/>
</g>
<!-- liquidity_locker_v2 -->
<g id="node5" class="node">
<title>liquidity_locker_v2</title>
<polygon fill="none" stroke="black" points="221.75,-320.82 99.25,-320.82 99.25,-284.82 221.75,-284.82 221.75,-320.82"/>
<text text-anchor="middle" x="160.5" y="-297.77" font-family="Times,serif" font-size="14.00">liquidity_locker_v2</text>
</g>
<!-- integrate&#45;&gt;liquidity_locker_v2 -->
<g id="edge4" class="edge">
<title>integrate&#45;&gt;liquidity_locker_v2</title>
<path fill="none" stroke="black" d="M63.66,-302.82C70.98,-302.82 79.07,-302.82 87.37,-302.82"/>
<polygon fill="black" stroke="black" points="87.25,-306.32 97.25,-302.82 87.25,-299.32 87.25,-306.32"/>
</g>
<!-- integer_mate -->
<g id="node6" class="node">
<title>integer_mate</title>
<polygon fill="none" stroke="black" points="736.88,-190.82 649.62,-190.82 649.62,-154.82 736.88,-154.82 736.88,-190.82"/>
<text text-anchor="middle" x="693.25" y="-167.77" font-family="Times,serif" font-size="14.00">integer_mate</text>
</g>
<!-- integrate&#45;&gt;integer_mate -->
<g id="edge22" class="edge">
<title>integrate&#45;&gt;integer_mate</title>
<path fill="none" stroke="black" d="M34.1,-284.46C38.03,-247.54 51.92,-163.78 99.25,-115.82 164.73,-49.47 202.66,-42.82 295.88,-42.82 295.88,-42.82 295.88,-42.82 434.25,-42.82 515.75,-42.82 538.81,-56.26 609.5,-96.82 632.12,-109.8 653.68,-129.95 669.12,-146.24"/>
<polygon fill="black" stroke="black" points="666.23,-148.27 675.59,-153.24 671.37,-143.52 666.23,-148.27"/>
</g>
<!-- gauge_cap -->
<g id="node7" class="node">
<title>gauge_cap</title>
<polygon fill="none" stroke="black" points="730.12,-488.82 656.38,-488.82 656.38,-452.82 730.12,-452.82 730.12,-488.82"/>
<text text-anchor="middle" x="693.25" y="-465.77" font-family="Times,serif" font-size="14.00">gauge_cap</text>
</g>
<!-- integrate&#45;&gt;gauge_cap -->
<g id="edge26" class="edge">
<title>integrate&#45;&gt;gauge_cap</title>
<path fill="none" stroke="black" d="M35.71,-321.16C42.17,-354.59 59.88,-426.23 99.25,-471.82 165.13,-548.1 195.08,-584.82 295.88,-584.82 295.88,-584.82 295.88,-584.82 434.25,-584.82 514.89,-584.82 537.65,-574.44 609.5,-537.82 630.15,-527.3 650.42,-511.01 665.74,-497.13"/>
<polygon fill="black" stroke="black" points="668.11,-499.7 673.04,-490.32 663.33,-494.58 668.11,-499.7"/>
</g>
<!-- distribution -->
<g id="node9" class="node">
<title>distribution</title>
<polygon fill="none" stroke="black" points="336,-274.82 257.75,-274.82 257.75,-238.82 336,-238.82 336,-274.82"/>
<text text-anchor="middle" x="296.88" y="-251.77" font-family="Times,serif" font-size="14.00">distribution</text>
</g>
<!-- integrate&#45;&gt;distribution -->
<g id="edge18" class="edge">
<title>integrate&#45;&gt;distribution</title>
<path fill="none" stroke="black" d="M63.53,-288.13C74.57,-283.47 87.25,-278.76 99.25,-275.82 148.21,-263.8 205.77,-259.32 245.91,-257.68"/>
<polygon fill="black" stroke="black" points="245.88,-261.19 255.75,-257.33 245.63,-254.19 245.88,-261.19"/>
</g>
<!-- move_stl -->
<g id="node10" class="node">
<title>move_stl</title>
<polygon fill="none" stroke="black" points="726.38,-79.82 660.12,-79.82 660.12,-43.82 726.38,-43.82 726.38,-79.82"/>
<text text-anchor="middle" x="693.25" y="-56.77" font-family="Times,serif" font-size="14.00">move_stl</text>
</g>
<!-- integrate&#45;&gt;move_stl -->
<g id="edge20" class="edge">
<title>integrate&#45;&gt;move_stl</title>
<path fill="none" stroke="black" d="M34.76,-284.67C41.41,-231.3 63.46,-76.52 99.25,-42.82 164.04,18.2 206.87,-4.82 295.88,-4.82 295.88,-4.82 295.88,-4.82 434.25,-4.82 511.23,-4.82 598.14,-29.31 648.9,-46.19"/>
<polygon fill="black" stroke="black" points="647.74,-49.49 658.34,-49.38 649.99,-42.86 647.74,-49.49"/>
</g>
<!-- ve -->
<g id="node12" class="node">
<title>ve</title>
<polygon fill="none" stroke="black" points="460.25,-106.82 406.25,-106.82 406.25,-70.82 460.25,-70.82 460.25,-106.82"/>
<text text-anchor="middle" x="433.25" y="-83.77" font-family="Times,serif" font-size="14.00">ve</text>
</g>
<!-- integrate&#45;&gt;ve -->
<g id="edge33" class="edge">
<title>integrate&#45;&gt;ve</title>
<path fill="none" stroke="black" d="M46.15,-284.36C77.73,-242.92 161.06,-142.88 257.75,-101.82 302.03,-83.01 358.3,-82.5 394.79,-84.84"/>
<polygon fill="black" stroke="black" points="394.15,-88.31 404.39,-85.57 394.68,-81.33 394.15,-88.31"/>
</g>
<!-- clmm_pool&#45;&gt;price_provider -->
<g id="edge1" class="edge">
<title>clmm_pool&#45;&gt;price_provider</title>
<path fill="none" stroke="black" d="M583.74,-313.15C592.05,-325.79 602.59,-343.23 609.5,-359.82 633.89,-418.33 622.33,-438.82 645.5,-497.82 653.54,-518.31 665.27,-540.12 674.97,-556.78"/>
<polygon fill="black" stroke="black" points="671.81,-558.31 679.92,-565.13 677.83,-554.74 671.81,-558.31"/>
</g>
<!-- clmm_pool&#45;&gt;integer_mate -->
<g id="edge21" class="edge">
<title>clmm_pool&#45;&gt;integer_mate</title>
<path fill="none" stroke="black" d="M589.15,-276.55C609.51,-256.07 642.71,-222.67 665.92,-199.31"/>
<polygon fill="black" stroke="black" points="668.34,-201.84 672.91,-192.28 663.37,-196.91 668.34,-201.84"/>
</g>
<!-- clmm_pool&#45;&gt;gauge_cap -->
<g id="edge24" class="edge">
<title>clmm_pool&#45;&gt;gauge_cap</title>
<path fill="none" stroke="black" d="M595.83,-313.23C600.66,-317.4 605.47,-322.03 609.5,-326.82 639.92,-362.98 665.3,-411.85 679.63,-442.34"/>
<polygon fill="black" stroke="black" points="676.4,-443.7 683.77,-451.31 682.76,-440.77 676.4,-443.7"/>
</g>
<!-- clmm_pool&#45;&gt;move_stl -->
<g id="edge19" class="edge">
<title>clmm_pool&#45;&gt;move_stl</title>
<path fill="none" stroke="black" d="M579.92,-276.34C593.64,-248.04 620.93,-192.37 645.5,-145.82 655.41,-127.05 667.01,-106.21 676.17,-89.98"/>
<polygon fill="black" stroke="black" points="679.17,-91.79 681.05,-81.36 673.08,-88.34 679.17,-91.79"/>
</g>
<!-- liquidity_locker_v1&#45;&gt;clmm_pool -->
<g id="edge5" class="edge">
<title>liquidity_locker_v1&#45;&gt;clmm_pool</title>
<path fill="none" stroke="black" d="M452.19,-482.51C464.92,-468.93 481.92,-449.61 494.5,-430.82 514.18,-401.42 513.48,-390.83 530.5,-359.82 537.22,-347.58 545,-334.29 551.81,-322.93"/>
<polygon fill="black" stroke="black" points="554.77,-324.79 556.94,-314.42 548.78,-321.18 554.77,-324.79"/>
</g>
<!-- liquidity_locker_v1&#45;&gt;price_provider -->
<g id="edge7" class="edge">
<title>liquidity_locker_v1&#45;&gt;price_provider</title>
<path fill="none" stroke="black" d="M490.87,-519.25C533.44,-533.11 591.57,-552.04 634.43,-565.99"/>
<polygon fill="black" stroke="black" points="633.23,-569.28 643.82,-569.05 635.39,-562.63 633.23,-569.28"/>
</g>
<!-- liquidity_locker_v1&#45;&gt;integer_mate -->
<g id="edge6" class="edge">
<title>liquidity_locker_v1&#45;&gt;integer_mate</title>
<path fill="none" stroke="black" d="M494.84,-483.83C532.52,-470.43 579.36,-448.16 609.5,-413.82 663.98,-351.75 683.01,-252.05 689.32,-202.61"/>
<polygon fill="black" stroke="black" points="692.79,-203.02 690.48,-192.68 685.84,-202.2 692.79,-203.02"/>
</g>
<!-- liquidity_locker_v1&#45;&gt;gauge_cap -->
<g id="edge8" class="edge">
<title>liquidity_locker_v1&#45;&gt;gauge_cap</title>
<path fill="none" stroke="black" d="M494.74,-493.79C540.48,-488.47 602.42,-481.27 644.66,-476.35"/>
<polygon fill="black" stroke="black" points="644.99,-479.84 654.52,-475.21 644.18,-472.89 644.99,-479.84"/>
</g>
<!-- locker_cap -->
<g id="node8" class="node">
<title>locker_cap</title>
<polygon fill="none" stroke="black" points="607.62,-404.82 532.38,-404.82 532.38,-368.82 607.62,-368.82 607.62,-404.82"/>
<text text-anchor="middle" x="570" y="-381.77" font-family="Times,serif" font-size="14.00">locker_cap</text>
</g>
<!-- liquidity_locker_v1&#45;&gt;locker_cap -->
<g id="edge9" class="edge">
<title>liquidity_locker_v1&#45;&gt;locker_cap</title>
<path fill="none" stroke="black" d="M475.13,-482.41C481.96,-478.44 488.7,-473.88 494.5,-468.82 515.13,-450.82 511.82,-438.84 530.5,-418.82 532.42,-416.76 534.47,-414.71 536.59,-412.7"/>
<polygon fill="black" stroke="black" points="538.71,-415.5 543.82,-406.22 534.03,-410.29 538.71,-415.5"/>
</g>
<!-- liquidity_locker_v2&#45;&gt;clmm_pool -->
<g id="edge10" class="edge">
<title>liquidity_locker_v2&#45;&gt;clmm_pool</title>
<path fill="none" stroke="black" d="M222.07,-301.63C302.67,-300.05 443.73,-297.28 518.75,-295.81"/>
<polygon fill="black" stroke="black" points="518.76,-299.31 528.69,-295.61 518.62,-292.31 518.76,-299.31"/>
</g>
<!-- liquidity_locker_v2&#45;&gt;price_provider -->
<g id="edge12" class="edge">
<title>liquidity_locker_v2&#45;&gt;price_provider</title>
<path fill="none" stroke="black" d="M166.89,-321.15C178.32,-357.27 208.07,-438.49 257.75,-488.82 349.58,-581.84 401.26,-579.3 530.5,-598.82 564.75,-603.99 603.4,-600.97 634.33,-596.43"/>
<polygon fill="black" stroke="black" points="634.52,-599.95 643.85,-594.94 633.43,-593.03 634.52,-599.95"/>
</g>
<!-- liquidity_locker_v2&#45;&gt;integer_mate -->
<g id="edge11" class="edge">
<title>liquidity_locker_v2&#45;&gt;integer_mate</title>
<path fill="none" stroke="black" d="M179.68,-284.52C213.75,-251.73 291.11,-184.18 372,-160.82 462.52,-134.68 573.4,-148.37 638.11,-160.64"/>
<polygon fill="black" stroke="black" points="637.28,-164.04 647.77,-162.53 638.63,-157.17 637.28,-164.04"/>
</g>
<!-- liquidity_locker_v2&#45;&gt;gauge_cap -->
<g id="edge13" class="edge">
<title>liquidity_locker_v2&#45;&gt;gauge_cap</title>
<path fill="none" stroke="black" d="M171.45,-321.19C197.3,-366.72 271.65,-484.28 372,-527.82 464.75,-568.06 584.4,-524.14 647.96,-494.09"/>
<polygon fill="black" stroke="black" points="649.2,-497.38 656.68,-489.88 646.16,-491.08 649.2,-497.38"/>
</g>
<!-- liquidity_locker_v2&#45;&gt;locker_cap -->
<g id="edge15" class="edge">
<title>liquidity_locker_v2&#45;&gt;locker_cap</title>
<path fill="none" stroke="black" d="M196.82,-321.16C237.71,-341.29 307.69,-372.4 372,-384.82 421.97,-394.47 480.42,-393.58 520.59,-391.14"/>
<polygon fill="black" stroke="black" points="520.68,-394.64 530.42,-390.48 520.21,-387.66 520.68,-394.64"/>
</g>
<!-- liquidity_locker_v2&#45;&gt;distribution -->
<g id="edge14" class="edge">
<title>liquidity_locker_v2&#45;&gt;distribution</title>
<path fill="none" stroke="black" d="M215.38,-284.37C225.68,-280.85 236.41,-277.18 246.55,-273.7"/>
<polygon fill="black" stroke="black" points="247.52,-277.07 255.85,-270.52 245.25,-270.45 247.52,-277.07"/>
</g>
<!-- liquidity_locker_v2&#45;&gt;ve -->
<g id="edge34" class="edge">
<title>liquidity_locker_v2&#45;&gt;ve</title>
<path fill="none" stroke="black" d="M167.54,-284.5C179.42,-251.28 209.01,-181.01 257.75,-142.82 298.02,-111.27 356.82,-98.04 394.82,-92.57"/>
<polygon fill="black" stroke="black" points="394.94,-96.08 404.4,-91.3 394.03,-89.14 394.94,-96.08"/>
</g>
<!-- distribution&#45;&gt;clmm_pool -->
<g id="edge16" class="edge">
<title>distribution&#45;&gt;clmm_pool</title>
<path fill="none" stroke="black" d="M336.43,-262.22C384.38,-268.94 466.31,-280.43 519.03,-287.82"/>
<polygon fill="black" stroke="black" points="518.25,-291.24 528.64,-289.16 519.22,-284.31 518.25,-291.24"/>
</g>
<!-- distribution&#45;&gt;integer_mate -->
<g id="edge23" class="edge">
<title>distribution&#45;&gt;integer_mate</title>
<path fill="none" stroke="black" d="M312.45,-238.55C326.03,-223.04 347.77,-201.77 372,-191.82 459.73,-155.8 572.44,-159.29 638.08,-165.67"/>
<polygon fill="black" stroke="black" points="637.57,-169.13 647.88,-166.68 638.29,-162.17 637.57,-169.13"/>
</g>
<!-- distribution&#45;&gt;gauge_cap -->
<g id="edge25" class="edge">
<title>distribution&#45;&gt;gauge_cap</title>
<path fill="none" stroke="black" d="M336.33,-275.1C347.69,-280.18 360.23,-285.49 372,-289.82 475.27,-327.84 519.2,-296.92 609.5,-359.82 640.05,-381.1 663.92,-417.26 678.01,-442.5"/>
<polygon fill="black" stroke="black" points="674.9,-444.11 682.73,-451.25 681.06,-440.78 674.9,-444.11"/>
</g>
<!-- distribution&#45;&gt;locker_cap -->
<g id="edge27" class="edge">
<title>distribution&#45;&gt;locker_cap</title>
<path fill="none" stroke="black" d="M306.23,-275.04C317.65,-297.72 340.39,-335.78 372,-354.82 417.31,-382.11 478.63,-388.23 520.75,-388.73"/>
<polygon fill="black" stroke="black" points="520.58,-392.23 530.58,-388.73 520.59,-385.23 520.58,-392.23"/>
</g>
<!-- price_monitor -->
<g id="node11" class="node">
<title>price_monitor</title>
<polygon fill="none" stroke="black" points="479.88,-236.82 386.62,-236.82 386.62,-200.82 479.88,-200.82 479.88,-236.82"/>
<text text-anchor="middle" x="433.25" y="-213.77" font-family="Times,serif" font-size="14.00">price_monitor</text>
</g>
<!-- distribution&#45;&gt;price_monitor -->
<g id="edge30" class="edge">
<title>distribution&#45;&gt;price_monitor</title>
<path fill="none" stroke="black" d="M336.38,-245.93C348.62,-242.47 362.42,-238.57 375.66,-234.82"/>
<polygon fill="black" stroke="black" points="376.48,-238.23 385.15,-232.14 374.57,-231.49 376.48,-238.23"/>
</g>
<!-- distribution&#45;&gt;ve -->
<g id="edge32" class="edge">
<title>distribution&#45;&gt;ve</title>
<path fill="none" stroke="black" d="M311.2,-238.49C325.78,-218.61 350.03,-186.04 372,-158.82 383.7,-144.32 397.19,-128.57 408.44,-115.68"/>
<polygon fill="black" stroke="black" points="410.86,-118.23 414.82,-108.4 405.59,-113.62 410.86,-118.23"/>
</g>
<!-- price_monitor&#45;&gt;clmm_pool -->
<g id="edge28" class="edge">
<title>price_monitor&#45;&gt;clmm_pool</title>
<path fill="none" stroke="black" d="M469.44,-237.17C477.7,-241.57 486.44,-246.3 494.5,-250.82 505.74,-257.12 517.8,-264.13 528.89,-270.68"/>
<polygon fill="black" stroke="black" points="527.05,-273.66 537.43,-275.75 530.62,-267.64 527.05,-273.66"/>
</g>
<!-- price_monitor&#45;&gt;integer_mate -->
<g id="edge29" class="edge">
<title>price_monitor&#45;&gt;integer_mate</title>
<path fill="none" stroke="black" d="M480.08,-210.65C524.36,-202.75 591.43,-190.8 638.27,-182.44"/>
<polygon fill="black" stroke="black" points="638.7,-185.92 647.93,-180.72 637.47,-179.03 638.7,-185.92"/>
</g>
<!-- ve&#45;&gt;integer_mate -->
<g id="edge31" class="edge">
<title>ve&#45;&gt;integer_mate</title>
<path fill="none" stroke="black" d="M460.63,-90.51C495.68,-93.45 559.05,-101.21 609.5,-120.82 627.01,-127.63 644.86,-138.28 659.47,-148.17"/>
<polygon fill="black" stroke="black" points="657.13,-150.8 667.33,-153.65 661.13,-145.06 657.13,-150.8"/>
</g>
</g>
</svg>
