<?xml version="1.0" encoding="UTF-8" standalone="no"?>
<!DOCTYPE svg PUBLIC "-//W3C//DTD SVG 1.1//EN"
 "http://www.w3.org/Graphics/SVG/1.1/DTD/svg11.dtd">
<!-- Generated by graphviz version 12.2.1 (20241206.2353)
 -->
<!-- Title: Dependencies Pages: 1 -->
<svg width="749pt" height="669pt"
 viewBox="0.00 0.00 749.00 669.14" xmlns="http://www.w3.org/2000/svg" xmlns:xlink="http://www.w3.org/1999/xlink">
<g id="graph0" class="graph" transform="scale(1 1) rotate(0) translate(4 665.14)">
<title>Dependencies</title>
<polygon fill="white" stroke="none" points="-4,4 -4,-665.14 745,-665.14 745,4 -4,4"/>
<!-- integrate -->
<g id="node1" class="node">
<title>integrate</title>
<polygon fill="none" stroke="black" points="63.25,-321.14 0,-321.14 0,-285.14 63.25,-285.14 63.25,-321.14"/>
<text text-anchor="middle" x="31.62" y="-298.09" font-family="Times,serif" font-size="14.00">integrate</text>
</g>
<!-- clmm_pool -->
<g id="node2" class="node">
<title>clmm_pool</title>
<polygon fill="none" stroke="black" points="609.5,-313.14 530.5,-313.14 530.5,-277.14 609.5,-277.14 609.5,-313.14"/>
<text text-anchor="middle" x="570" y="-290.09" font-family="Times,serif" font-size="14.00">clmm_pool</text>
</g>
<!-- integrate&#45;&gt;clmm_pool -->
<g id="edge17" class="edge">
<title>integrate&#45;&gt;clmm_pool</title>
<path fill="none" stroke="black" d="M63.72,-318.62C74.67,-323.29 87.24,-327.8 99.25,-330.14 250.2,-359.56 432.87,-326.87 519.2,-307.44"/>
<polygon fill="black" stroke="black" points="519.79,-310.9 528.75,-305.25 518.23,-304.07 519.79,-310.9"/>
</g>
<!-- price_provider -->
<g id="node3" class="node">
<title>price_provider</title>
<polygon fill="none" stroke="black" points="741,-603.14 645.5,-603.14 645.5,-567.14 741,-567.14 741,-603.14"/>
<text text-anchor="middle" x="693.25" y="-580.09" font-family="Times,serif" font-size="14.00">price_provider</text>
</g>
<!-- integrate&#45;&gt;price_provider -->
<g id="edge2" class="edge">
<title>integrate&#45;&gt;price_provider</title>
<path fill="none" stroke="black" d="M33.44,-321.58C36.19,-363.98 48.07,-469.97 99.25,-538.14 161.14,-620.57 192.8,-661.14 295.88,-661.14 295.88,-661.14 295.88,-661.14 434.25,-661.14 510.1,-661.14 593.58,-630.53 644.46,-608.17"/>
<polygon fill="black" stroke="black" points="645.73,-611.43 653.42,-604.15 642.87,-605.05 645.73,-611.43"/>
</g>
<!-- liquidity_locker_v1 -->
<g id="node4" class="node">
<title>liquidity_locker_v1</title>
<polygon fill="none" stroke="black" points="494.5,-519.14 372,-519.14 372,-483.14 494.5,-483.14 494.5,-519.14"/>
<text text-anchor="middle" x="433.25" y="-496.09" font-family="Times,serif" font-size="14.00">liquidity_locker_v1</text>
</g>
<!-- integrate&#45;&gt;liquidity_locker_v1 -->
<g id="edge3" class="edge">
<title>integrate&#45;&gt;liquidity_locker_v1</title>
<path fill="none" stroke="black" d="M36.76,-321.2C44.17,-349.34 62.53,-403.27 99.25,-431.14 175.08,-488.67 287.38,-501.51 360.19,-503.13"/>
<polygon fill="black" stroke="black" points="359.96,-506.62 370.01,-503.27 360.07,-499.62 359.96,-506.62"/>
</g>
<!-- liquidity_locker_v2 -->
<g id="node5" class="node">
<title>liquidity_locker_v2</title>
<polygon fill="none" stroke="black" points="221.75,-321.14 99.25,-321.14 99.25,-285.14 221.75,-285.14 221.75,-321.14"/>
<text text-anchor="middle" x="160.5" y="-298.09" font-family="Times,serif" font-size="14.00">liquidity_locker_v2</text>
</g>
<!-- integrate&#45;&gt;liquidity_locker_v2 -->
<g id="edge4" class="edge">
<title>integrate&#45;&gt;liquidity_locker_v2</title>
<path fill="none" stroke="black" d="M63.66,-303.14C70.98,-303.14 79.07,-303.14 87.37,-303.14"/>
<polygon fill="black" stroke="black" points="87.25,-306.64 97.25,-303.14 87.25,-299.64 87.25,-306.64"/>
</g>
<!-- integer_mate -->
<g id="node6" class="node">
<title>integer_mate</title>
<polygon fill="none" stroke="black" points="736.88,-191.14 649.62,-191.14 649.62,-155.14 736.88,-155.14 736.88,-191.14"/>
<text text-anchor="middle" x="693.25" y="-168.09" font-family="Times,serif" font-size="14.00">integer_mate</text>
</g>
<!-- integrate&#45;&gt;integer_mate -->
<g id="edge22" class="edge">
<title>integrate&#45;&gt;integer_mate</title>
<path fill="none" stroke="black" d="M33.97,-284.83C37.68,-247.61 51.22,-162.54 99.25,-114.14 164.7,-48.19 202.96,-43.14 295.88,-43.14 295.88,-43.14 295.88,-43.14 434.25,-43.14 515.75,-43.14 538.81,-56.58 609.5,-97.14 632.12,-110.11 653.68,-130.27 669.12,-146.56"/>
<polygon fill="black" stroke="black" points="666.23,-148.58 675.59,-153.56 671.37,-143.83 666.23,-148.58"/>
</g>
<!-- gauge_cap -->
<g id="node7" class="node">
<title>gauge_cap</title>
<polygon fill="none" stroke="black" points="730.12,-489.14 656.38,-489.14 656.38,-453.14 730.12,-453.14 730.12,-489.14"/>
<text text-anchor="middle" x="693.25" y="-466.09" font-family="Times,serif" font-size="14.00">gauge_cap</text>
</g>
<!-- integrate&#45;&gt;gauge_cap -->
<g id="edge26" class="edge">
<title>integrate&#45;&gt;gauge_cap</title>
<path fill="none" stroke="black" d="M35.71,-321.47C42.17,-354.91 59.88,-426.55 99.25,-472.14 165.13,-548.42 195.08,-585.14 295.88,-585.14 295.88,-585.14 295.88,-585.14 434.25,-585.14 514.89,-585.14 537.65,-574.75 609.5,-538.14 630.15,-527.61 650.42,-511.32 665.74,-497.44"/>
<polygon fill="black" stroke="black" points="668.11,-500.02 673.04,-490.64 663.33,-494.9 668.11,-500.02"/>
</g>
<!-- distribution -->
<g id="node9" class="node">
<title>distribution</title>
<polygon fill="none" stroke="black" points="336,-275.14 257.75,-275.14 257.75,-239.14 336,-239.14 336,-275.14"/>
<text text-anchor="middle" x="296.88" y="-252.09" font-family="Times,serif" font-size="14.00">distribution</text>
</g>
<!-- integrate&#45;&gt;distribution -->
<g id="edge18" class="edge">
<title>integrate&#45;&gt;distribution</title>
<path fill="none" stroke="black" d="M63.53,-288.45C74.57,-283.79 87.25,-279.08 99.25,-276.14 148.21,-264.12 205.77,-259.64 245.91,-258"/>
<polygon fill="black" stroke="black" points="245.88,-261.5 255.75,-257.65 245.63,-254.51 245.88,-261.5"/>
</g>
<!-- move_stl -->
<g id="node10" class="node">
<title>move_stl</title>
<polygon fill="none" stroke="black" points="726.38,-80.14 660.12,-80.14 660.12,-44.14 726.38,-44.14 726.38,-80.14"/>
<text text-anchor="middle" x="693.25" y="-57.09" font-family="Times,serif" font-size="14.00">move_stl</text>
</g>
<!-- integrate&#45;&gt;move_stl -->
<g id="edge20" class="edge">
<title>integrate&#45;&gt;move_stl</title>
<path fill="none" stroke="black" d="M34.74,-284.91C41.34,-231.31 63.27,-75.89 99.25,-42.14 164.11,18.7 206.95,-5.14 295.88,-5.14 295.88,-5.14 295.88,-5.14 434.25,-5.14 511.23,-5.14 598.14,-29.63 648.9,-46.5"/>
<polygon fill="black" stroke="black" points="647.74,-49.81 658.34,-49.7 649.99,-43.18 647.74,-49.81"/>
</g>
<!-- ve -->
<g id="node12" class="node">
<title>ve</title>
<polygon fill="none" stroke="black" points="460.25,-107.14 406.25,-107.14 406.25,-71.14 460.25,-71.14 460.25,-107.14"/>
<text text-anchor="middle" x="433.25" y="-84.09" font-family="Times,serif" font-size="14.00">ve</text>
</g>
<!-- integrate&#45;&gt;ve -->
<g id="edge33" class="edge">
<title>integrate&#45;&gt;ve</title>
<path fill="none" stroke="black" d="M45.83,-284.73C77.07,-242.91 160.25,-141.17 257.75,-100.14 302.06,-81.49 358.32,-81.7 394.8,-84.58"/>
<polygon fill="black" stroke="black" points="394.12,-88.03 404.4,-85.45 394.75,-81.06 394.12,-88.03"/>
</g>
<!-- clmm_pool&#45;&gt;price_provider -->
<g id="edge1" class="edge">
<title>clmm_pool&#45;&gt;price_provider</title>
<path fill="none" stroke="black" d="M583.74,-313.46C592.05,-326.1 602.59,-343.55 609.5,-360.14 633.89,-418.64 622.33,-439.14 645.5,-498.14 653.54,-518.62 665.27,-540.44 674.97,-557.1"/>
<polygon fill="black" stroke="black" points="671.81,-558.63 679.92,-565.45 677.83,-555.06 671.81,-558.63"/>
</g>
<!-- clmm_pool&#45;&gt;integer_mate -->
<g id="edge21" class="edge">
<title>clmm_pool&#45;&gt;integer_mate</title>
<path fill="none" stroke="black" d="M589.15,-276.87C609.51,-256.39 642.71,-222.98 665.92,-199.63"/>
<polygon fill="black" stroke="black" points="668.34,-202.16 672.91,-192.6 663.37,-197.22 668.34,-202.16"/>
</g>
<!-- clmm_pool&#45;&gt;gauge_cap -->
<g id="edge24" class="edge">
<title>clmm_pool&#45;&gt;gauge_cap</title>
<path fill="none" stroke="black" d="M595.83,-313.55C600.66,-317.72 605.47,-322.35 609.5,-327.14 639.92,-363.29 665.3,-412.17 679.63,-442.66"/>
<polygon fill="black" stroke="black" points="676.4,-444.01 683.77,-451.63 682.76,-441.08 676.4,-444.01"/>
</g>
<!-- clmm_pool&#45;&gt;move_stl -->
<g id="edge19" class="edge">
<title>clmm_pool&#45;&gt;move_stl</title>
<path fill="none" stroke="black" d="M579.92,-276.65C593.64,-248.36 620.93,-192.68 645.5,-146.14 655.41,-127.37 667.01,-106.52 676.17,-90.29"/>
<polygon fill="black" stroke="black" points="679.17,-92.1 681.05,-81.68 673.08,-88.65 679.17,-92.1"/>
</g>
<!-- liquidity_locker_v1&#45;&gt;clmm_pool -->
<g id="edge5" class="edge">
<title>liquidity_locker_v1&#45;&gt;clmm_pool</title>
<path fill="none" stroke="black" d="M452.19,-482.82C464.92,-469.25 481.92,-449.92 494.5,-431.14 514.18,-401.74 513.48,-391.15 530.5,-360.14 537.22,-347.9 545,-334.6 551.81,-323.24"/>
<polygon fill="black" stroke="black" points="554.77,-325.11 556.94,-314.74 548.78,-321.49 554.77,-325.11"/>
</g>
<!-- liquidity_locker_v1&#45;&gt;price_provider -->
<g id="edge7" class="edge">
<title>liquidity_locker_v1&#45;&gt;price_provider</title>
<path fill="none" stroke="black" d="M490.87,-519.57C533.44,-533.43 591.57,-552.36 634.43,-566.31"/>
<polygon fill="black" stroke="black" points="633.23,-569.6 643.82,-569.37 635.39,-562.94 633.23,-569.6"/>
</g>
<!-- liquidity_locker_v1&#45;&gt;integer_mate -->
<g id="edge6" class="edge">
<title>liquidity_locker_v1&#45;&gt;integer_mate</title>
<path fill="none" stroke="black" d="M494.84,-484.15C532.52,-470.74 579.36,-448.47 609.5,-414.14 663.98,-352.07 683.01,-252.37 689.32,-202.93"/>
<polygon fill="black" stroke="black" points="692.79,-203.34 690.48,-193 685.84,-202.52 692.79,-203.34"/>
</g>
<!-- liquidity_locker_v1&#45;&gt;gauge_cap -->
<g id="edge8" class="edge">
<title>liquidity_locker_v1&#45;&gt;gauge_cap</title>
<path fill="none" stroke="black" d="M494.74,-494.1C540.48,-488.78 602.42,-481.58 644.66,-476.67"/>
<polygon fill="black" stroke="black" points="644.99,-480.16 654.52,-475.52 644.18,-473.2 644.99,-480.16"/>
</g>
<!-- locker_cap -->
<g id="node8" class="node">
<title>locker_cap</title>
<polygon fill="none" stroke="black" points="607.62,-405.14 532.38,-405.14 532.38,-369.14 607.62,-369.14 607.62,-405.14"/>
<text text-anchor="middle" x="570" y="-382.09" font-family="Times,serif" font-size="14.00">locker_cap</text>
</g>
<!-- liquidity_locker_v1&#45;&gt;locker_cap -->
<g id="edge9" class="edge">
<title>liquidity_locker_v1&#45;&gt;locker_cap</title>
<path fill="none" stroke="black" d="M475.13,-482.73C481.96,-478.75 488.7,-474.2 494.5,-469.14 515.13,-451.13 511.82,-439.16 530.5,-419.14 532.42,-417.08 534.47,-415.03 536.59,-413.02"/>
<polygon fill="black" stroke="black" points="538.71,-415.82 543.82,-406.54 534.03,-410.61 538.71,-415.82"/>
</g>
<!-- liquidity_locker_v2&#45;&gt;clmm_pool -->
<g id="edge10" class="edge">
<title>liquidity_locker_v2&#45;&gt;clmm_pool</title>
<path fill="none" stroke="black" d="M222.07,-301.95C302.67,-300.36 443.73,-297.6 518.75,-296.12"/>
<polygon fill="black" stroke="black" points="518.76,-299.62 528.69,-295.93 518.62,-292.62 518.76,-299.62"/>
</g>
<!-- liquidity_locker_v2&#45;&gt;price_provider -->
<g id="edge12" class="edge">
<title>liquidity_locker_v2&#45;&gt;price_provider</title>
<path fill="none" stroke="black" d="M166.89,-321.47C178.32,-357.59 208.07,-438.81 257.75,-489.14 349.58,-582.16 401.26,-579.61 530.5,-599.14 564.75,-604.31 603.4,-601.29 634.33,-596.75"/>
<polygon fill="black" stroke="black" points="634.52,-600.26 643.85,-595.26 633.43,-593.35 634.52,-600.26"/>
</g>
<!-- liquidity_locker_v2&#45;&gt;integer_mate -->
<g id="edge11" class="edge">
<title>liquidity_locker_v2&#45;&gt;integer_mate</title>
<path fill="none" stroke="black" d="M183.26,-284.87C202.26,-269.35 230.93,-246.98 257.75,-230.14 290.83,-209.37 303.41,-211.66 336,-190.14 353.38,-178.66 352.48,-167.41 372,-160.14 460.72,-127.06 572.98,-143.7 638.3,-158.57"/>
<polygon fill="black" stroke="black" points="637.14,-161.9 647.67,-160.78 638.74,-155.08 637.14,-161.9"/>
</g>
<!-- liquidity_locker_v2&#45;&gt;gauge_cap -->
<g id="edge13" class="edge">
<title>liquidity_locker_v2&#45;&gt;gauge_cap</title>
<path fill="none" stroke="black" d="M171.45,-321.5C197.3,-367.04 271.65,-484.6 372,-528.14 464.75,-568.38 584.4,-524.45 647.96,-494.41"/>
<polygon fill="black" stroke="black" points="649.2,-497.7 656.68,-490.19 646.16,-491.39 649.2,-497.7"/>
</g>
<!-- liquidity_locker_v2&#45;&gt;locker_cap -->
<g id="edge15" class="edge">
<title>liquidity_locker_v2&#45;&gt;locker_cap</title>
<path fill="none" stroke="black" d="M196.82,-321.47C237.71,-341.6 307.69,-372.71 372,-385.14 421.97,-394.79 480.42,-393.9 520.59,-391.45"/>
<polygon fill="black" stroke="black" points="520.68,-394.96 530.42,-390.8 520.21,-387.97 520.68,-394.96"/>
</g>
<!-- liquidity_locker_v2&#45;&gt;distribution -->
<g id="edge14" class="edge">
<title>liquidity_locker_v2&#45;&gt;distribution</title>
<path fill="none" stroke="black" d="M215.38,-284.69C225.68,-281.17 236.41,-277.49 246.55,-274.02"/>
<polygon fill="black" stroke="black" points="247.52,-277.39 255.85,-270.84 245.25,-270.77 247.52,-277.39"/>
</g>
<!-- liquidity_locker_v2&#45;&gt;ve -->
<g id="edge34" class="edge">
<title>liquidity_locker_v2&#45;&gt;ve</title>
<path fill="none" stroke="black" d="M174.95,-284.94C192.27,-262.37 224.19,-223.62 257.75,-197.14 288.9,-172.56 303.75,-177.26 336,-154.14 353.64,-141.49 354.27,-133.66 372,-121.14 379.41,-115.9 387.79,-110.93 395.88,-106.54"/>
<polygon fill="black" stroke="black" points="397.31,-109.74 404.55,-102 394.07,-103.53 397.31,-109.74"/>
</g>
<!-- distribution&#45;&gt;clmm_pool -->
<g id="edge16" class="edge">
<title>distribution&#45;&gt;clmm_pool</title>
<path fill="none" stroke="black" d="M336.43,-262.54C384.38,-269.26 466.31,-280.74 519.03,-288.13"/>
<polygon fill="black" stroke="black" points="518.25,-291.56 528.64,-289.48 519.22,-284.62 518.25,-291.56"/>
</g>
<!-- distribution&#45;&gt;integer_mate -->
<g id="edge23" class="edge">
<title>distribution&#45;&gt;integer_mate</title>
<path fill="none" stroke="black" d="M320.19,-238.69C325.41,-234.29 330.93,-229.58 336,-225.14 352.32,-210.82 352.01,-200.6 372,-192.14 459.33,-155.15 572.17,-158.96 637.95,-165.66"/>
<polygon fill="black" stroke="black" points="637.45,-169.13 647.77,-166.73 638.2,-162.17 637.45,-169.13"/>
</g>
<!-- distribution&#45;&gt;gauge_cap -->
<g id="edge25" class="edge">
<title>distribution&#45;&gt;gauge_cap</title>
<path fill="none" stroke="black" d="M336.33,-275.41C347.69,-280.5 360.23,-285.81 372,-290.14 475.27,-328.15 519.2,-297.24 609.5,-360.14 640.05,-381.41 663.92,-417.57 678.01,-442.82"/>
<polygon fill="black" stroke="black" points="674.9,-444.42 682.73,-451.56 681.06,-441.1 674.9,-444.42"/>
</g>
<!-- distribution&#45;&gt;locker_cap -->
<g id="edge27" class="edge">
<title>distribution&#45;&gt;locker_cap</title>
<path fill="none" stroke="black" d="M306.23,-275.36C317.65,-298.03 340.39,-336.09 372,-355.14 417.31,-382.43 478.63,-388.55 520.75,-389.04"/>
<polygon fill="black" stroke="black" points="520.58,-392.54 530.58,-389.05 520.59,-385.54 520.58,-392.54"/>
</g>
<!-- price_monitor -->
<g id="node11" class="node">
<title>price_monitor</title>
<polygon fill="none" stroke="black" points="479.88,-237.14 386.62,-237.14 386.62,-201.14 479.88,-201.14 479.88,-237.14"/>
<text text-anchor="middle" x="433.25" y="-214.09" font-family="Times,serif" font-size="14.00">price_monitor</text>
</g>
<!-- distribution&#45;&gt;price_monitor -->
<g id="edge30" class="edge">
<title>distribution&#45;&gt;price_monitor</title>
<path fill="none" stroke="black" d="M336.38,-246.25C348.62,-242.79 362.42,-238.88 375.66,-235.14"/>
<polygon fill="black" stroke="black" points="376.48,-238.55 385.15,-232.46 374.57,-231.81 376.48,-238.55"/>
</g>
<!-- distribution&#45;&gt;ve -->
<g id="edge32" class="edge">
<title>distribution&#45;&gt;ve</title>
<path fill="none" stroke="black" d="M311.2,-238.81C325.78,-218.92 350.03,-186.36 372,-159.14 383.7,-144.64 397.19,-128.88 408.44,-116"/>
<polygon fill="black" stroke="black" points="410.86,-118.55 414.82,-108.72 405.59,-113.93 410.86,-118.55"/>
</g>
<!-- price_monitor&#45;&gt;clmm_pool -->
<g id="edge28" class="edge">
<title>price_monitor&#45;&gt;clmm_pool</title>
<path fill="none" stroke="black" d="M469.44,-237.48C477.7,-241.88 486.44,-246.62 494.5,-251.14 505.74,-257.43 517.8,-264.45 528.89,-271"/>
<polygon fill="black" stroke="black" points="527.05,-273.97 537.43,-276.07 530.62,-267.95 527.05,-273.97"/>
</g>
<!-- price_monitor&#45;&gt;integer_mate -->
<g id="edge29" class="edge">
<title>price_monitor&#45;&gt;integer_mate</title>
<path fill="none" stroke="black" d="M480.08,-210.97C524.36,-203.07 591.43,-191.11 638.27,-182.76"/>
<polygon fill="black" stroke="black" points="638.7,-186.24 647.93,-181.04 637.47,-179.35 638.7,-186.24"/>
</g>
<!-- ve&#45;&gt;integer_mate -->
<g id="edge31" class="edge">
<title>ve&#45;&gt;integer_mate</title>
<path fill="none" stroke="black" d="M460.63,-90.83C495.68,-93.77 559.05,-101.52 609.5,-121.14 627.01,-127.95 644.86,-138.59 659.47,-148.49"/>
<polygon fill="black" stroke="black" points="657.13,-151.12 667.33,-153.96 661.13,-145.38 657.13,-151.12"/>
</g>
<!-- airdrop -->
<g id="node13" class="node">
<title>airdrop</title>
<polygon fill="none" stroke="black" points="324.38,-145.14 269.38,-145.14 269.38,-109.14 324.38,-109.14 324.38,-145.14"/>
<text text-anchor="middle" x="296.88" y="-122.09" font-family="Times,serif" font-size="14.00">airdrop</text>
</g>
<!-- airdrop&#45;&gt;ve -->
<g id="edge35" class="edge">
<title>airdrop&#45;&gt;ve</title>
<path fill="none" stroke="black" d="M324.74,-119.54C344.83,-113.86 372.55,-106.02 394.81,-99.72"/>
<polygon fill="black" stroke="black" points="395.76,-103.09 404.43,-97 393.85,-96.36 395.76,-103.09"/>
</g>
</g>
</svg>
