<?xml version="1.0" encoding="UTF-8" standalone="no"?>
<!DOCTYPE svg PUBLIC "-//W3C//DTD SVG 1.1//EN"
 "http://www.w3.org/Graphics/SVG/1.1/DTD/svg11.dtd">
<!-- Generated by graphviz version 12.2.1 (20241206.2353)
 -->
<!-- Title: Dependencies Pages: 1 -->
<svg width="424pt" height="197pt"
 viewBox="0.00 0.00 423.75 197.00" xmlns="http://www.w3.org/2000/svg" xmlns:xlink="http://www.w3.org/1999/xlink">
<g id="graph0" class="graph" transform="scale(1 1) rotate(0) translate(4 193)">
<title>Dependencies</title>
<polygon fill="white" stroke="none" points="-4,4 -4,-193 419.75,-193 419.75,4 -4,4"/>
<!-- integrate -->
<g id="node1" class="node">
<title>integrate</title>
<polygon fill="none" stroke="black" points="63.25,-120 0,-120 0,-84 63.25,-84 63.25,-120"/>
<text text-anchor="middle" x="31.62" y="-96.95" font-family="Times,serif" font-size="14.00">integrate</text>
</g>
<!-- distribution -->
<g id="node2" class="node">
<title>distribution</title>
<polygon fill="none" stroke="black" points="177.5,-74 99.25,-74 99.25,-38 177.5,-38 177.5,-74"/>
<text text-anchor="middle" x="138.38" y="-50.95" font-family="Times,serif" font-size="14.00">distribution</text>
</g>
<!-- integrate&#45;&gt;distribution -->
<g id="edge3" class="edge">
<title>integrate&#45;&gt;distribution</title>
<path fill="none" stroke="black" d="M63.49,-88.45C71.38,-84.98 80.06,-81.17 88.62,-77.41"/>
<polygon fill="black" stroke="black" points="89.79,-80.72 97.54,-73.49 86.98,-74.31 89.79,-80.72"/>
</g>
<!-- clmm_pool -->
<g id="node3" class="node">
<title>clmm_pool</title>
<polygon fill="none" stroke="black" points="292.5,-120 213.5,-120 213.5,-84 292.5,-84 292.5,-120"/>
<text text-anchor="middle" x="253" y="-96.95" font-family="Times,serif" font-size="14.00">clmm_pool</text>
</g>
<!-- integrate&#45;&gt;clmm_pool -->
<g id="edge2" class="edge">
<title>integrate&#45;&gt;clmm_pool</title>
<path fill="none" stroke="black" d="M63.59,-102C99.51,-102 159.23,-102 201.81,-102"/>
<polygon fill="black" stroke="black" points="201.54,-105.5 211.54,-102 201.54,-98.5 201.54,-105.5"/>
</g>
<!-- move_stl -->
<g id="node4" class="node">
<title>move_stl</title>
<polygon fill="none" stroke="black" points="405.25,-189 339,-189 339,-153 405.25,-153 405.25,-189"/>
<text text-anchor="middle" x="372.12" y="-165.95" font-family="Times,serif" font-size="14.00">move_stl</text>
</g>
<!-- integrate&#45;&gt;move_stl -->
<g id="edge5" class="edge">
<title>integrate&#45;&gt;move_stl</title>
<path fill="none" stroke="black" d="M60.05,-120.4C71.67,-127.34 85.65,-134.61 99.25,-139 177,-164.08 272.91,-169.91 327.54,-171.03"/>
<polygon fill="black" stroke="black" points="327.31,-174.53 337.36,-171.18 327.42,-167.53 327.31,-174.53"/>
</g>
<!-- integer_mate -->
<g id="node5" class="node">
<title>integer_mate</title>
<polygon fill="none" stroke="black" points="415.75,-120 328.5,-120 328.5,-84 415.75,-84 415.75,-120"/>
<text text-anchor="middle" x="372.12" y="-96.95" font-family="Times,serif" font-size="14.00">integer_mate</text>
</g>
<!-- integrate&#45;&gt;integer_mate -->
<g id="edge7" class="edge">
<title>integrate&#45;&gt;integer_mate</title>
<path fill="none" stroke="black" d="M63.59,-110.57C112.47,-122.89 210.4,-142.7 292.5,-129 300.62,-127.64 309.03,-125.55 317.19,-123.12"/>
<polygon fill="black" stroke="black" points="318.22,-126.46 326.68,-120.08 316.09,-119.8 318.22,-126.46"/>
</g>
<!-- gauge_cap -->
<g id="node6" class="node">
<title>gauge_cap</title>
<polygon fill="none" stroke="black" points="409,-36 335.25,-36 335.25,0 409,0 409,-36"/>
<text text-anchor="middle" x="372.12" y="-12.95" font-family="Times,serif" font-size="14.00">gauge_cap</text>
</g>
<!-- integrate&#45;&gt;gauge_cap -->
<g id="edge11" class="edge">
<title>integrate&#45;&gt;gauge_cap</title>
<path fill="none" stroke="black" d="M43.21,-83.79C54.56,-66.21 74.36,-40.59 99.25,-29 171.77,4.76 267.3,-1.33 323.68,-9.32"/>
<polygon fill="black" stroke="black" points="322.85,-12.73 333.25,-10.76 323.89,-5.81 322.85,-12.73"/>
</g>
<!-- distribution&#45;&gt;clmm_pool -->
<g id="edge1" class="edge">
<title>distribution&#45;&gt;clmm_pool</title>
<path fill="none" stroke="black" d="M177.82,-71.7C185.88,-75 194.49,-78.51 202.89,-81.94"/>
<polygon fill="black" stroke="black" points="201.36,-85.1 211.95,-85.64 204.01,-78.62 201.36,-85.1"/>
</g>
<!-- distribution&#45;&gt;integer_mate -->
<g id="edge8" class="edge">
<title>distribution&#45;&gt;integer_mate</title>
<path fill="none" stroke="black" d="M177.83,-58.55C209.03,-61.15 254,-66.1 292.5,-75 300.71,-76.9 309.27,-79.34 317.59,-81.97"/>
<polygon fill="black" stroke="black" points="316.31,-85.23 326.9,-85.04 318.5,-78.58 316.31,-85.23"/>
</g>
<!-- distribution&#45;&gt;gauge_cap -->
<g id="edge10" class="edge">
<title>distribution&#45;&gt;gauge_cap</title>
<path fill="none" stroke="black" d="M177.8,-48.47C189.27,-46.3 201.88,-43.98 213.5,-42 250.44,-35.7 292.39,-29.35 323.72,-24.77"/>
<polygon fill="black" stroke="black" points="323.86,-28.28 333.26,-23.38 322.86,-21.36 323.86,-28.28"/>
</g>
<!-- clmm_pool&#45;&gt;move_stl -->
<g id="edge4" class="edge">
<title>clmm_pool&#45;&gt;move_stl</title>
<path fill="none" stroke="black" d="M285.39,-120.49C299.15,-128.6 315.49,-138.22 330.19,-146.89"/>
<polygon fill="black" stroke="black" points="328.36,-149.87 338.75,-151.93 331.91,-143.84 328.36,-149.87"/>
</g>
<!-- clmm_pool&#45;&gt;integer_mate -->
<g id="edge6" class="edge">
<title>clmm_pool&#45;&gt;integer_mate</title>
<path fill="none" stroke="black" d="M292.68,-102C300.37,-102 308.59,-102 316.71,-102"/>
<polygon fill="black" stroke="black" points="316.53,-105.5 326.53,-102 316.53,-98.5 316.53,-105.5"/>
</g>
<!-- clmm_pool&#45;&gt;gauge_cap -->
<g id="edge9" class="edge">
<title>clmm_pool&#45;&gt;gauge_cap</title>
<path fill="none" stroke="black" d="M279.7,-83.57C296.33,-71.64 318.19,-55.96 336.36,-42.93"/>
<polygon fill="black" stroke="black" points="338.17,-45.95 344.25,-37.27 334.09,-40.26 338.17,-45.95"/>
</g>
</g>
</svg>
