<?xml version="1.0" encoding="UTF-8" standalone="no"?>
<!DOCTYPE svg PUBLIC "-//W3C//DTD SVG 1.1//EN"
 "http://www.w3.org/Graphics/SVG/1.1/DTD/svg11.dtd">
<!-- Generated by graphviz version 12.2.1 (20241206.2353)
 -->
<!-- Title: Dependencies Pages: 1 -->
<svg width="635pt" height="431pt"
 viewBox="0.00 0.00 634.75 431.38" xmlns="http://www.w3.org/2000/svg" xmlns:xlink="http://www.w3.org/1999/xlink">
<g id="graph0" class="graph" transform="scale(1 1) rotate(0) translate(4 427.38)">
<title>Dependencies</title>
<polygon fill="white" stroke="none" points="-4,4 -4,-427.38 630.75,-427.38 630.75,4 -4,4"/>
<!-- integrate -->
<g id="node1" class="node">
<title>integrate</title>
<polygon fill="none" stroke="black" points="63.25,-191.38 0,-191.38 0,-155.38 63.25,-155.38 63.25,-191.38"/>
<text text-anchor="middle" x="31.62" y="-168.33" font-family="Times,serif" font-size="14.00">integrate</text>
</g>
<!-- clmm_pool -->
<g id="node2" class="node">
<title>clmm_pool</title>
<polygon fill="none" stroke="black" points="495.25,-206.38 416.25,-206.38 416.25,-170.38 495.25,-170.38 495.25,-206.38"/>
<text text-anchor="middle" x="455.75" y="-183.33" font-family="Times,serif" font-size="14.00">clmm_pool</text>
</g>
<!-- integrate&#45;&gt;clmm_pool -->
<g id="edge15" class="edge">
<title>integrate&#45;&gt;clmm_pool</title>
<path fill="none" stroke="black" d="M63.46,-175.41C74.72,-176.11 87.56,-176.84 99.25,-177.38 208,-182.36 335.57,-185.7 404.46,-187.29"/>
<polygon fill="black" stroke="black" points="404.22,-190.79 414.3,-187.52 404.38,-183.79 404.22,-190.79"/>
</g>
<!-- price_provider -->
<g id="node3" class="node">
<title>price_provider</title>
<polygon fill="none" stroke="black" points="626.75,-423.38 531.25,-423.38 531.25,-387.38 626.75,-387.38 626.75,-423.38"/>
<text text-anchor="middle" x="579" y="-400.33" font-family="Times,serif" font-size="14.00">price_provider</text>
</g>
<!-- integrate&#45;&gt;price_provider -->
<g id="edge2" class="edge">
<title>integrate&#45;&gt;price_provider</title>
<path fill="none" stroke="black" d="M39.22,-191.88C48.86,-216.52 69.02,-260.06 99.25,-286.38 212.52,-384.99 268.03,-379.18 416.25,-403.38 450.17,-408.92 488.62,-409.62 519.52,-408.84"/>
<polygon fill="black" stroke="black" points="519.57,-412.34 529.45,-408.52 519.34,-405.34 519.57,-412.34"/>
</g>
<!-- liquidity_locker_v1 -->
<g id="node4" class="node">
<title>liquidity_locker_v1</title>
<polygon fill="none" stroke="black" points="380.25,-298.38 257.75,-298.38 257.75,-262.38 380.25,-262.38 380.25,-298.38"/>
<text text-anchor="middle" x="319" y="-275.33" font-family="Times,serif" font-size="14.00">liquidity_locker_v1</text>
</g>
<!-- integrate&#45;&gt;liquidity_locker_v1 -->
<g id="edge3" class="edge">
<title>integrate&#45;&gt;liquidity_locker_v1</title>
<path fill="none" stroke="black" d="M62.83,-191.81C74.03,-198.19 86.99,-205.07 99.25,-210.38 147.06,-231.06 203.03,-248.86 246.39,-261.34"/>
<polygon fill="black" stroke="black" points="245.38,-264.69 255.96,-264.06 247.3,-257.96 245.38,-264.69"/>
</g>
<!-- liquidity_locker_v2 -->
<g id="node5" class="node">
<title>liquidity_locker_v2</title>
<polygon fill="none" stroke="black" points="221.75,-168.38 99.25,-168.38 99.25,-132.38 221.75,-132.38 221.75,-168.38"/>
<text text-anchor="middle" x="160.5" y="-145.33" font-family="Times,serif" font-size="14.00">liquidity_locker_v2</text>
</g>
<!-- integrate&#45;&gt;liquidity_locker_v2 -->
<g id="edge4" class="edge">
<title>integrate&#45;&gt;liquidity_locker_v2</title>
<path fill="none" stroke="black" d="M63.66,-167.75C71.06,-166.41 79.26,-164.93 87.66,-163.4"/>
<polygon fill="black" stroke="black" points="88.06,-166.89 97.28,-161.66 86.81,-160 88.06,-166.89"/>
</g>
<!-- integer_mate -->
<g id="node6" class="node">
<title>integer_mate</title>
<polygon fill="none" stroke="black" points="622.62,-252.38 535.38,-252.38 535.38,-216.38 622.62,-216.38 622.62,-252.38"/>
<text text-anchor="middle" x="579" y="-229.33" font-family="Times,serif" font-size="14.00">integer_mate</text>
</g>
<!-- integrate&#45;&gt;integer_mate -->
<g id="edge20" class="edge">
<title>integrate&#45;&gt;integer_mate</title>
<path fill="none" stroke="black" d="M45.85,-191.84C58.13,-207.85 77.72,-230.7 99.25,-245.38 161.74,-288 183.42,-293.36 257.75,-307.38 361.48,-326.95 396.61,-341.97 495.25,-304.38 518.69,-295.45 540.16,-276.83 555.35,-261.05"/>
<polygon fill="black" stroke="black" points="557.87,-263.48 562.09,-253.76 552.73,-258.72 557.87,-263.48"/>
</g>
<!-- gauge_cap -->
<g id="node7" class="node">
<title>gauge_cap</title>
<polygon fill="none" stroke="black" points="615.88,-122.38 542.12,-122.38 542.12,-86.38 615.88,-86.38 615.88,-122.38"/>
<text text-anchor="middle" x="579" y="-99.33" font-family="Times,serif" font-size="14.00">gauge_cap</text>
</g>
<!-- integrate&#45;&gt;gauge_cap -->
<g id="edge24" class="edge">
<title>integrate&#45;&gt;gauge_cap</title>
<path fill="none" stroke="black" d="M44.63,-155.05C56.5,-138.44 76.2,-114.6 99.25,-101.38 161.83,-65.49 186.03,-74.2 257.75,-66.38 362.69,-54.93 392.07,-47.05 495.25,-69.38 507.62,-72.06 520.47,-76.55 532.24,-81.45"/>
<polygon fill="black" stroke="black" points="530.76,-84.62 541.32,-85.41 533.55,-78.2 530.76,-84.62"/>
</g>
<!-- distribution -->
<g id="node8" class="node">
<title>distribution</title>
<polygon fill="none" stroke="black" points="358.12,-130.38 279.88,-130.38 279.88,-94.38 358.12,-94.38 358.12,-130.38"/>
<text text-anchor="middle" x="319" y="-107.33" font-family="Times,serif" font-size="14.00">distribution</text>
</g>
<!-- integrate&#45;&gt;distribution -->
<g id="edge16" class="edge">
<title>integrate&#45;&gt;distribution</title>
<path fill="none" stroke="black" d="M50.63,-155.13C63.11,-143.76 80.75,-130.07 99.25,-123.38 154.51,-103.39 222.78,-103.53 268.2,-106.78"/>
<polygon fill="black" stroke="black" points="267.77,-110.25 278.01,-107.56 268.32,-103.27 267.77,-110.25"/>
</g>
<!-- move_stl -->
<g id="node9" class="node">
<title>move_stl</title>
<polygon fill="none" stroke="black" points="612.12,-38.38 545.88,-38.38 545.88,-2.38 612.12,-2.38 612.12,-38.38"/>
<text text-anchor="middle" x="579" y="-15.33" font-family="Times,serif" font-size="14.00">move_stl</text>
</g>
<!-- integrate&#45;&gt;move_stl -->
<g id="edge18" class="edge">
<title>integrate&#45;&gt;move_stl</title>
<path fill="none" stroke="black" d="M38.13,-155.17C46.74,-130.2 65.94,-86.07 99.25,-65.38 238.21,20.94 444.93,1.48 534.27,-12.4"/>
<polygon fill="black" stroke="black" points="533.65,-15.84 544.08,-13.98 534.77,-8.93 533.65,-15.84"/>
</g>
<!-- clmm_pool&#45;&gt;price_provider -->
<g id="edge1" class="edge">
<title>clmm_pool&#45;&gt;price_provider</title>
<path fill="none" stroke="black" d="M466.88,-206.51C488.01,-244.32 536.92,-331.85 562.21,-377.12"/>
<polygon fill="black" stroke="black" points="559.14,-378.81 567.08,-385.83 565.25,-375.39 559.14,-378.81"/>
</g>
<!-- clmm_pool&#45;&gt;integer_mate -->
<g id="edge19" class="edge">
<title>clmm_pool&#45;&gt;integer_mate</title>
<path fill="none" stroke="black" d="M495.45,-203.06C504.71,-206.57 514.76,-210.39 524.56,-214.11"/>
<polygon fill="black" stroke="black" points="523.04,-217.27 533.63,-217.55 525.52,-210.73 523.04,-217.27"/>
</g>
<!-- clmm_pool&#45;&gt;gauge_cap -->
<g id="edge22" class="edge">
<title>clmm_pool&#45;&gt;gauge_cap</title>
<path fill="none" stroke="black" d="M483.36,-169.95C500.57,-158.02 523.2,-142.34 542.01,-129.31"/>
<polygon fill="black" stroke="black" points="543.98,-132.2 550.21,-123.63 540,-126.45 543.98,-132.2"/>
</g>
<!-- clmm_pool&#45;&gt;move_stl -->
<g id="edge17" class="edge">
<title>clmm_pool&#45;&gt;move_stl</title>
<path fill="none" stroke="black" d="M468.36,-169.94C482.59,-147.61 507.72,-109.05 531.25,-77.38 538.64,-67.44 547.12,-56.87 554.81,-47.57"/>
<polygon fill="black" stroke="black" points="557.47,-49.84 561.2,-39.92 552.1,-45.35 557.47,-49.84"/>
</g>
<!-- liquidity_locker_v1&#45;&gt;clmm_pool -->
<g id="edge5" class="edge">
<title>liquidity_locker_v1&#45;&gt;clmm_pool</title>
<path fill="none" stroke="black" d="M346.94,-261.98C367.51,-247.94 396.05,-228.46 418.6,-213.06"/>
<polygon fill="black" stroke="black" points="420.32,-216.13 426.6,-207.6 416.37,-210.35 420.32,-216.13"/>
</g>
<!-- liquidity_locker_v1&#45;&gt;price_provider -->
<g id="edge7" class="edge">
<title>liquidity_locker_v1&#45;&gt;price_provider</title>
<path fill="none" stroke="black" d="M358.07,-298.82C403.74,-320.95 480.35,-358.07 530.02,-382.14"/>
<polygon fill="black" stroke="black" points="528.31,-385.19 538.83,-386.4 531.36,-378.89 528.31,-385.19"/>
</g>
<!-- liquidity_locker_v1&#45;&gt;integer_mate -->
<g id="edge6" class="edge">
<title>liquidity_locker_v1&#45;&gt;integer_mate</title>
<path fill="none" stroke="black" d="M380.35,-291.57C414.68,-295.69 458.1,-297.08 495.25,-286.38 513.97,-280.98 532.55,-269.96 547.35,-259.45"/>
<polygon fill="black" stroke="black" points="549.32,-262.35 555.27,-253.58 545.15,-256.72 549.32,-262.35"/>
</g>
<!-- liquidity_locker_v1&#45;&gt;gauge_cap -->
<g id="edge8" class="edge">
<title>liquidity_locker_v1&#45;&gt;gauge_cap</title>
<path fill="none" stroke="black" d="M380.62,-267.13C416.47,-257.16 461.35,-240.76 495.25,-215.38 524.88,-193.19 548.81,-157.53 563.17,-132.64"/>
<polygon fill="black" stroke="black" points="566.16,-134.45 567.99,-124.02 560.05,-131.04 566.16,-134.45"/>
</g>
<!-- liquidity_locker_v2&#45;&gt;clmm_pool -->
<g id="edge9" class="edge">
<title>liquidity_locker_v2&#45;&gt;clmm_pool</title>
<path fill="none" stroke="black" d="M221.91,-158.21C275.88,-165.2 354.03,-175.33 404.62,-181.88"/>
<polygon fill="black" stroke="black" points="404.05,-185.34 414.42,-183.15 404.95,-178.4 404.05,-185.34"/>
</g>
<!-- liquidity_locker_v2&#45;&gt;price_provider -->
<g id="edge11" class="edge">
<title>liquidity_locker_v2&#45;&gt;price_provider</title>
<path fill="none" stroke="black" d="M167.91,-168.77C180.21,-201.4 210.2,-269.57 257.75,-307.38 335.03,-368.82 450.68,-391.87 519.8,-400.43"/>
<polygon fill="black" stroke="black" points="519.06,-403.86 529.4,-401.55 519.87,-396.91 519.06,-403.86"/>
</g>
<!-- liquidity_locker_v2&#45;&gt;integer_mate -->
<g id="edge10" class="edge">
<title>liquidity_locker_v2&#45;&gt;integer_mate</title>
<path fill="none" stroke="black" d="M207.52,-168.83C223.27,-174.68 241.12,-180.81 257.75,-185.38 349.47,-210.56 459.75,-223.85 524.05,-229.98"/>
<polygon fill="black" stroke="black" points="523.33,-233.43 533.61,-230.86 523.98,-226.46 523.33,-233.43"/>
</g>
<!-- liquidity_locker_v2&#45;&gt;gauge_cap -->
<g id="edge12" class="edge">
<title>liquidity_locker_v2&#45;&gt;gauge_cap</title>
<path fill="none" stroke="black" d="M181.02,-131.97C199.26,-116.14 228.06,-94.47 257.75,-85.38 351.45,-56.7 467.62,-76.42 531.12,-91.55"/>
<polygon fill="black" stroke="black" points="529.95,-94.87 540.5,-93.86 531.62,-88.07 529.95,-94.87"/>
</g>
<!-- liquidity_locker_v2&#45;&gt;distribution -->
<g id="edge13" class="edge">
<title>liquidity_locker_v2&#45;&gt;distribution</title>
<path fill="none" stroke="black" d="M222.01,-135.69C237.5,-131.93 253.97,-127.93 268.81,-124.32"/>
<polygon fill="black" stroke="black" points="269.44,-127.77 278.33,-122.01 267.79,-120.97 269.44,-127.77"/>
</g>
<!-- distribution&#45;&gt;clmm_pool -->
<g id="edge14" class="edge">
<title>distribution&#45;&gt;clmm_pool</title>
<path fill="none" stroke="black" d="M355.19,-130.73C363.45,-135.13 372.19,-139.86 380.25,-144.38 391.49,-150.68 403.55,-157.69 414.64,-164.24"/>
<polygon fill="black" stroke="black" points="412.8,-167.22 423.18,-169.31 416.37,-161.2 412.8,-167.22"/>
</g>
<!-- distribution&#45;&gt;integer_mate -->
<g id="edge21" class="edge">
<title>distribution&#45;&gt;integer_mate</title>
<path fill="none" stroke="black" d="M358.45,-118.01C395.27,-124.55 451.53,-137.62 495.25,-161.38 517.41,-173.42 538.65,-192.38 554.07,-207.95"/>
<polygon fill="black" stroke="black" points="551.5,-210.33 560.96,-215.11 556.54,-205.47 551.5,-210.33"/>
</g>
<!-- distribution&#45;&gt;gauge_cap -->
<g id="edge23" class="edge">
<title>distribution&#45;&gt;gauge_cap</title>
<path fill="none" stroke="black" d="M358.35,-111.19C404.22,-109.77 481.02,-107.39 530.58,-105.85"/>
<polygon fill="black" stroke="black" points="530.54,-109.35 540.43,-105.54 530.33,-102.36 530.54,-109.35"/>
</g>
</g>
</svg>
