<?xml version="1.0" encoding="UTF-8" standalone="no"?>
<!DOCTYPE svg PUBLIC "-//W3C//DTD SVG 1.1//EN"
 "http://www.w3.org/Graphics/SVG/1.1/DTD/svg11.dtd">
<!-- Generated by graphviz version 12.2.1 (20241206.2353)
 -->
<!-- Title: Dependencies Pages: 1 -->
<svg width="635pt" height="483pt"
 viewBox="0.00 0.00 634.75 483.00" xmlns="http://www.w3.org/2000/svg" xmlns:xlink="http://www.w3.org/1999/xlink">
<g id="graph0" class="graph" transform="scale(1 1) rotate(0) translate(4 479)">
<title>Dependencies</title>
<polygon fill="white" stroke="none" points="-4,4 -4,-479 630.75,-479 630.75,4 -4,4"/>
<!-- integrate -->
<g id="node1" class="node">
<title>integrate</title>
<polygon fill="none" stroke="black" points="63.25,-235 0,-235 0,-199 63.25,-199 63.25,-235"/>
<text text-anchor="middle" x="31.62" y="-211.95" font-family="Times,serif" font-size="14.00">integrate</text>
</g>
<!-- clmm_pool -->
<g id="node2" class="node">
<title>clmm_pool</title>
<polygon fill="none" stroke="black" points="495.25,-166 416.25,-166 416.25,-130 495.25,-130 495.25,-166"/>
<text text-anchor="middle" x="455.75" y="-142.95" font-family="Times,serif" font-size="14.00">clmm_pool</text>
</g>
<!-- integrate&#45;&gt;clmm_pool -->
<g id="edge17" class="edge">
<title>integrate&#45;&gt;clmm_pool</title>
<path fill="none" stroke="black" d="M63.51,-203.16C106.16,-184.88 185.98,-153.64 257.75,-142 311.49,-133.28 325.85,-139.81 380.25,-142 388.18,-142.32 396.58,-142.83 404.76,-143.42"/>
<polygon fill="black" stroke="black" points="404.37,-146.9 414.61,-144.18 404.91,-139.92 404.37,-146.9"/>
</g>
<!-- price_provider -->
<g id="node3" class="node">
<title>price_provider</title>
<polygon fill="none" stroke="black" points="626.75,-475 531.25,-475 531.25,-439 626.75,-439 626.75,-475"/>
<text text-anchor="middle" x="579" y="-451.95" font-family="Times,serif" font-size="14.00">price_provider</text>
</g>
<!-- integrate&#45;&gt;price_provider -->
<g id="edge2" class="edge">
<title>integrate&#45;&gt;price_provider</title>
<path fill="none" stroke="black" d="M39.15,-235.25C48.71,-259.51 68.77,-302.2 99.25,-327 224.12,-428.58 421.85,-451.13 519.48,-455.9"/>
<polygon fill="black" stroke="black" points="519.23,-459.39 529.37,-456.33 519.53,-452.4 519.23,-459.39"/>
</g>
<!-- liquidity_locker_v1 -->
<g id="node4" class="node">
<title>liquidity_locker_v1</title>
<polygon fill="none" stroke="black" points="380.25,-304 257.75,-304 257.75,-268 380.25,-268 380.25,-304"/>
<text text-anchor="middle" x="319" y="-280.95" font-family="Times,serif" font-size="14.00">liquidity_locker_v1</text>
</g>
<!-- integrate&#45;&gt;liquidity_locker_v1 -->
<g id="edge3" class="edge">
<title>integrate&#45;&gt;liquidity_locker_v1</title>
<path fill="none" stroke="black" d="M50.99,-235.28C63.48,-246.5 81.01,-260.03 99.25,-267 145.99,-284.87 202.31,-289.41 246.1,-289.59"/>
<polygon fill="black" stroke="black" points="246.03,-293.09 256.01,-289.55 246,-286.09 246.03,-293.09"/>
</g>
<!-- liquidity_locker_v2 -->
<g id="node5" class="node">
<title>liquidity_locker_v2</title>
<polygon fill="none" stroke="black" points="221.75,-258 99.25,-258 99.25,-222 221.75,-222 221.75,-258"/>
<text text-anchor="middle" x="160.5" y="-234.95" font-family="Times,serif" font-size="14.00">liquidity_locker_v2</text>
</g>
<!-- integrate&#45;&gt;liquidity_locker_v2 -->
<g id="edge4" class="edge">
<title>integrate&#45;&gt;liquidity_locker_v2</title>
<path fill="none" stroke="black" d="M63.66,-222.63C71.06,-223.97 79.26,-225.45 87.66,-226.98"/>
<polygon fill="black" stroke="black" points="86.81,-230.38 97.28,-228.72 88.06,-223.49 86.81,-230.38"/>
</g>
<!-- integer_mate -->
<g id="node6" class="node">
<title>integer_mate</title>
<polygon fill="none" stroke="black" points="622.62,-120 535.38,-120 535.38,-84 622.62,-84 622.62,-120"/>
<text text-anchor="middle" x="579" y="-96.95" font-family="Times,serif" font-size="14.00">integer_mate</text>
</g>
<!-- integrate&#45;&gt;integer_mate -->
<g id="edge22" class="edge">
<title>integrate&#45;&gt;integer_mate</title>
<path fill="none" stroke="black" d="M44.26,-198.74C56.01,-181.93 75.74,-157.74 99.25,-145 237.17,-70.29 430.65,-82.11 523.75,-93.67"/>
<polygon fill="black" stroke="black" points="523.26,-97.13 533.63,-94.95 524.16,-90.19 523.26,-97.13"/>
</g>
<!-- gauge_cap -->
<g id="node7" class="node">
<title>gauge_cap</title>
<polygon fill="none" stroke="black" points="615.88,-342 542.12,-342 542.12,-306 615.88,-306 615.88,-342"/>
<text text-anchor="middle" x="579" y="-318.95" font-family="Times,serif" font-size="14.00">gauge_cap</text>
</g>
<!-- integrate&#45;&gt;gauge_cap -->
<g id="edge26" class="edge">
<title>integrate&#45;&gt;gauge_cap</title>
<path fill="none" stroke="black" d="M44.46,-235.39C56.34,-252.44 76.18,-277.33 99.25,-292 161.25,-331.43 185.44,-325.93 257.75,-339 361.73,-357.79 390.8,-366.02 495.25,-350 507.09,-348.18 519.57,-344.98 531.14,-341.44"/>
<polygon fill="black" stroke="black" points="532.02,-344.83 540.47,-338.43 529.87,-338.17 532.02,-344.83"/>
</g>
<!-- distribution -->
<g id="node9" class="node">
<title>distribution</title>
<polygon fill="none" stroke="black" points="358.12,-212 279.88,-212 279.88,-176 358.12,-176 358.12,-212"/>
<text text-anchor="middle" x="319" y="-188.95" font-family="Times,serif" font-size="14.00">distribution</text>
</g>
<!-- integrate&#45;&gt;distribution -->
<g id="edge18" class="edge">
<title>integrate&#45;&gt;distribution</title>
<path fill="none" stroke="black" d="M63.71,-214.49C113,-210.52 209.55,-202.74 268.47,-197.99"/>
<polygon fill="black" stroke="black" points="268.53,-201.5 278.21,-197.21 267.96,-194.52 268.53,-201.5"/>
</g>
<!-- move_stl -->
<g id="node10" class="node">
<title>move_stl</title>
<polygon fill="none" stroke="black" points="612.12,-36 545.88,-36 545.88,0 612.12,0 612.12,-36"/>
<text text-anchor="middle" x="579" y="-12.95" font-family="Times,serif" font-size="14.00">move_stl</text>
</g>
<!-- integrate&#45;&gt;move_stl -->
<g id="edge20" class="edge">
<title>integrate&#45;&gt;move_stl</title>
<path fill="none" stroke="black" d="M37.35,-198.53C45.29,-171.54 63.99,-121.84 99.25,-97 234.36,-1.81 443.56,-6.12 533.94,-13.33"/>
<polygon fill="black" stroke="black" points="533.61,-16.82 543.87,-14.19 534.2,-9.84 533.61,-16.82"/>
</g>
<!-- clmm_pool&#45;&gt;price_provider -->
<g id="edge1" class="edge">
<title>clmm_pool&#45;&gt;price_provider</title>
<path fill="none" stroke="black" d="M469.49,-166.33C477.8,-178.97 488.34,-196.41 495.25,-213 519.64,-271.51 510.39,-291.14 531.25,-351 540.6,-377.85 553.88,-407.37 563.9,-428.42"/>
<polygon fill="black" stroke="black" points="560.65,-429.74 568.14,-437.24 566.96,-426.71 560.65,-429.74"/>
</g>
<!-- clmm_pool&#45;&gt;integer_mate -->
<g id="edge21" class="edge">
<title>clmm_pool&#45;&gt;integer_mate</title>
<path fill="none" stroke="black" d="M495.45,-133.32C504.71,-129.8 514.76,-125.99 524.56,-122.27"/>
<polygon fill="black" stroke="black" points="525.52,-125.65 533.63,-118.83 523.04,-119.11 525.52,-125.65"/>
</g>
<!-- clmm_pool&#45;&gt;gauge_cap -->
<g id="edge24" class="edge">
<title>clmm_pool&#45;&gt;gauge_cap</title>
<path fill="none" stroke="black" d="M481.58,-166.41C486.41,-170.59 491.22,-175.21 495.25,-180 525.67,-216.16 551.05,-265.03 565.38,-295.52"/>
<polygon fill="black" stroke="black" points="562.15,-296.88 569.52,-304.49 568.51,-293.95 562.15,-296.88"/>
</g>
<!-- clmm_pool&#45;&gt;move_stl -->
<g id="edge19" class="edge">
<title>clmm_pool&#45;&gt;move_stl</title>
<path fill="none" stroke="black" d="M473.86,-129.65C494.54,-107.49 529.47,-70.03 553.12,-44.68"/>
<polygon fill="black" stroke="black" points="555.68,-47.06 559.94,-37.36 550.56,-42.29 555.68,-47.06"/>
</g>
<!-- liquidity_locker_v1&#45;&gt;clmm_pool -->
<g id="edge5" class="edge">
<title>liquidity_locker_v1&#45;&gt;clmm_pool</title>
<path fill="none" stroke="black" d="M337.89,-267.67C361.25,-243.75 402.29,-201.73 428.99,-174.38"/>
<polygon fill="black" stroke="black" points="431.24,-177.08 435.72,-167.48 426.23,-172.19 431.24,-177.08"/>
</g>
<!-- liquidity_locker_v1&#45;&gt;price_provider -->
<g id="edge7" class="edge">
<title>liquidity_locker_v1&#45;&gt;price_provider</title>
<path fill="none" stroke="black" d="M347.61,-304.3C394.14,-335.14 488.21,-397.49 540.61,-432.22"/>
<polygon fill="black" stroke="black" points="538.67,-435.13 548.94,-437.74 542.53,-429.29 538.67,-435.13"/>
</g>
<!-- liquidity_locker_v1&#45;&gt;integer_mate -->
<g id="edge6" class="edge">
<title>liquidity_locker_v1&#45;&gt;integer_mate</title>
<path fill="none" stroke="black" d="M380.58,-293.18C416.86,-294.34 462.19,-289.95 495.25,-267 541.41,-234.95 563.16,-169.38 572.28,-131.26"/>
<polygon fill="black" stroke="black" points="575.62,-132.38 574.39,-121.85 568.79,-130.85 575.62,-132.38"/>
</g>
<!-- liquidity_locker_v1&#45;&gt;gauge_cap -->
<g id="edge8" class="edge">
<title>liquidity_locker_v1&#45;&gt;gauge_cap</title>
<path fill="none" stroke="black" d="M380.49,-294.91C426.23,-301.65 488.17,-310.77 530.41,-316.99"/>
<polygon fill="black" stroke="black" points="529.87,-320.45 540.27,-318.44 530.89,-313.52 529.87,-320.45"/>
</g>
<!-- locker_cap -->
<g id="node8" class="node">
<title>locker_cap</title>
<polygon fill="none" stroke="black" points="493.38,-258 418.12,-258 418.12,-222 493.38,-222 493.38,-258"/>
<text text-anchor="middle" x="455.75" y="-234.95" font-family="Times,serif" font-size="14.00">locker_cap</text>
</g>
<!-- liquidity_locker_v1&#45;&gt;locker_cap -->
<g id="edge9" class="edge">
<title>liquidity_locker_v1&#45;&gt;locker_cap</title>
<path fill="none" stroke="black" d="M374.03,-267.56C384.9,-263.84 396.25,-259.97 406.89,-256.34"/>
<polygon fill="black" stroke="black" points="407.91,-259.69 416.24,-253.15 405.65,-253.06 407.91,-259.69"/>
</g>
<!-- liquidity_locker_v2&#45;&gt;clmm_pool -->
<g id="edge10" class="edge">
<title>liquidity_locker_v2&#45;&gt;clmm_pool</title>
<path fill="none" stroke="black" d="M179.11,-221.73C197.08,-204.36 226.69,-179.14 257.75,-167 305.18,-148.46 363.73,-145.02 404.62,-145.41"/>
<polygon fill="black" stroke="black" points="404.34,-148.91 414.41,-145.59 404.47,-141.91 404.34,-148.91"/>
</g>
<!-- liquidity_locker_v2&#45;&gt;price_provider -->
<g id="edge12" class="edge">
<title>liquidity_locker_v2&#45;&gt;price_provider</title>
<path fill="none" stroke="black" d="M175.22,-258.49C192.35,-280.42 223.58,-316.79 257.75,-339 341.12,-393.17 452.78,-427.03 519.83,-443.92"/>
<polygon fill="black" stroke="black" points="518.99,-447.32 529.54,-446.32 520.67,-440.52 518.99,-447.32"/>
</g>
<!-- liquidity_locker_v2&#45;&gt;integer_mate -->
<g id="edge11" class="edge">
<title>liquidity_locker_v2&#45;&gt;integer_mate</title>
<path fill="none" stroke="black" d="M174.65,-221.58C191.44,-199.41 222.56,-162.6 257.75,-142 340.83,-93.36 456.64,-91.99 523.83,-96.35"/>
<polygon fill="black" stroke="black" points="523.25,-99.82 533.48,-97.05 523.75,-92.84 523.25,-99.82"/>
</g>
<!-- liquidity_locker_v2&#45;&gt;gauge_cap -->
<g id="edge13" class="edge">
<title>liquidity_locker_v2&#45;&gt;gauge_cap</title>
<path fill="none" stroke="black" d="M178.64,-258.29C196.48,-275.94 226.19,-301.6 257.75,-313 349.86,-346.26 466.73,-338.98 530.75,-331.18"/>
<polygon fill="black" stroke="black" points="531.1,-334.67 540.57,-329.93 530.21,-327.73 531.1,-334.67"/>
</g>
<!-- liquidity_locker_v2&#45;&gt;locker_cap -->
<g id="edge15" class="edge">
<title>liquidity_locker_v2&#45;&gt;locker_cap</title>
<path fill="none" stroke="black" d="M221.91,-240C276.66,-240 356.29,-240 406.79,-240"/>
<polygon fill="black" stroke="black" points="406.52,-243.5 416.52,-240 406.52,-236.5 406.52,-243.5"/>
</g>
<!-- liquidity_locker_v2&#45;&gt;distribution -->
<g id="edge14" class="edge">
<title>liquidity_locker_v2&#45;&gt;distribution</title>
<path fill="none" stroke="black" d="M222.01,-222.22C237.5,-217.66 253.97,-212.82 268.81,-208.46"/>
<polygon fill="black" stroke="black" points="269.74,-211.83 278.35,-205.65 267.77,-205.12 269.74,-211.83"/>
</g>
<!-- distribution&#45;&gt;clmm_pool -->
<g id="edge16" class="edge">
<title>distribution&#45;&gt;clmm_pool</title>
<path fill="none" stroke="black" d="M358.61,-180.82C373.27,-175.81 390.17,-170.05 405.67,-164.76"/>
<polygon fill="black" stroke="black" points="406.37,-168.22 414.7,-161.67 404.1,-161.59 406.37,-168.22"/>
</g>
<!-- distribution&#45;&gt;integer_mate -->
<g id="edge23" class="edge">
<title>distribution&#45;&gt;integer_mate</title>
<path fill="none" stroke="black" d="M338,-175.54C356.05,-158.29 385.51,-133.38 416.25,-121 450.24,-107.31 491.26,-102.61 523.49,-101.31"/>
<polygon fill="black" stroke="black" points="523.53,-104.81 533.42,-101.02 523.33,-97.81 523.53,-104.81"/>
</g>
<!-- distribution&#45;&gt;gauge_cap -->
<g id="edge25" class="edge">
<title>distribution&#45;&gt;gauge_cap</title>
<path fill="none" stroke="black" d="M358.57,-189.7C395.99,-187.39 453.13,-188.94 495.25,-213 528.08,-231.76 551.81,-269.38 565.23,-295.6"/>
<polygon fill="black" stroke="black" points="561.97,-296.91 569.52,-304.35 568.26,-293.83 561.97,-296.91"/>
</g>
<!-- distribution&#45;&gt;locker_cap -->
<g id="edge27" class="edge">
<title>distribution&#45;&gt;locker_cap</title>
<path fill="none" stroke="black" d="M358.61,-207.18C373.78,-212.36 391.34,-218.35 407.27,-223.79"/>
<polygon fill="black" stroke="black" points="405.96,-227.04 416.55,-226.96 408.22,-220.42 405.96,-227.04"/>
</g>
</g>
</svg>
