<?xml version="1.0" encoding="UTF-8" standalone="no"?>
<!DOCTYPE svg PUBLIC "-//W3C//DTD SVG 1.1//EN"
 "http://www.w3.org/Graphics/SVG/1.1/DTD/svg11.dtd">
<!-- Generated by graphviz version 12.2.1 (20241206.2353)
 -->
<!-- Title: Dependencies Pages: 1 -->
<svg width="635pt" height="470pt"
 viewBox="0.00 0.00 634.75 469.72" xmlns="http://www.w3.org/2000/svg" xmlns:xlink="http://www.w3.org/1999/xlink">
<g id="graph0" class="graph" transform="scale(1 1) rotate(0) translate(4 465.72)">
<title>Dependencies</title>
<polygon fill="white" stroke="none" points="-4,4 -4,-465.72 630.75,-465.72 630.75,4 -4,4"/>
<!-- integrate -->
<g id="node1" class="node">
<title>integrate</title>
<polygon fill="none" stroke="black" points="63.25,-205.29 0,-205.29 0,-169.29 63.25,-169.29 63.25,-205.29"/>
<text text-anchor="middle" x="31.62" y="-182.24" font-family="Times,serif" font-size="14.00">integrate</text>
</g>
<!-- clmm_pool -->
<g id="node2" class="node">
<title>clmm_pool</title>
<polygon fill="none" stroke="black" points="495.25,-212.29 416.25,-212.29 416.25,-176.29 495.25,-176.29 495.25,-212.29"/>
<text text-anchor="middle" x="455.75" y="-189.24" font-family="Times,serif" font-size="14.00">clmm_pool</text>
</g>
<!-- integrate&#45;&gt;clmm_pool -->
<g id="edge17" class="edge">
<title>integrate&#45;&gt;clmm_pool</title>
<path fill="none" stroke="black" d="M63.46,-185.05C74.71,-184.33 87.55,-183.64 99.25,-183.29 208.06,-180.02 335.61,-186.47 404.48,-190.8"/>
<polygon fill="black" stroke="black" points="404.11,-194.29 414.31,-191.44 404.56,-187.3 404.11,-194.29"/>
</g>
<!-- price_provider -->
<g id="node3" class="node">
<title>price_provider</title>
<polygon fill="none" stroke="black" points="626.75,-453.29 531.25,-453.29 531.25,-417.29 626.75,-417.29 626.75,-453.29"/>
<text text-anchor="middle" x="579" y="-430.24" font-family="Times,serif" font-size="14.00">price_provider</text>
</g>
<!-- integrate&#45;&gt;price_provider -->
<g id="edge2" class="edge">
<title>integrate&#45;&gt;price_provider</title>
<path fill="none" stroke="black" d="M35.91,-205.76C42.51,-237.95 60.22,-304.76 99.25,-345.29 203,-453.03 267.76,-440.29 416.25,-458.29 451.11,-462.51 460.46,-463.03 495.25,-458.29 503.27,-457.19 511.62,-455.53 519.79,-453.58"/>
<polygon fill="black" stroke="black" points="520.47,-457.02 529.3,-451.16 518.74,-450.24 520.47,-457.02"/>
</g>
<!-- liquidity_locker_v1 -->
<g id="node4" class="node">
<title>liquidity_locker_v1</title>
<polygon fill="none" stroke="black" points="380.25,-358.29 257.75,-358.29 257.75,-322.29 380.25,-322.29 380.25,-358.29"/>
<text text-anchor="middle" x="319" y="-335.24" font-family="Times,serif" font-size="14.00">liquidity_locker_v1</text>
</g>
<!-- integrate&#45;&gt;liquidity_locker_v1 -->
<g id="edge3" class="edge">
<title>integrate&#45;&gt;liquidity_locker_v1</title>
<path fill="none" stroke="black" d="M54.67,-205.56C67.29,-215.57 83.67,-227.83 99.25,-237.29 151.91,-269.24 216.07,-298.41 261.25,-317.48"/>
<polygon fill="black" stroke="black" points="259.76,-320.65 270.33,-321.28 262.46,-314.19 259.76,-320.65"/>
</g>
<!-- liquidity_locker_v2 -->
<g id="node5" class="node">
<title>liquidity_locker_v2</title>
<polygon fill="none" stroke="black" points="221.75,-228.29 99.25,-228.29 99.25,-192.29 221.75,-192.29 221.75,-228.29"/>
<text text-anchor="middle" x="160.5" y="-205.24" font-family="Times,serif" font-size="14.00">liquidity_locker_v2</text>
</g>
<!-- integrate&#45;&gt;liquidity_locker_v2 -->
<g id="edge4" class="edge">
<title>integrate&#45;&gt;liquidity_locker_v2</title>
<path fill="none" stroke="black" d="M63.66,-192.91C71.06,-194.25 79.26,-195.74 87.66,-197.26"/>
<polygon fill="black" stroke="black" points="86.81,-200.67 97.28,-199.01 88.06,-193.78 86.81,-200.67"/>
</g>
<!-- integer_mate -->
<g id="node6" class="node">
<title>integer_mate</title>
<polygon fill="none" stroke="black" points="622.62,-350.29 535.38,-350.29 535.38,-314.29 622.62,-314.29 622.62,-350.29"/>
<text text-anchor="middle" x="579" y="-327.24" font-family="Times,serif" font-size="14.00">integer_mate</text>
</g>
<!-- integrate&#45;&gt;integer_mate -->
<g id="edge22" class="edge">
<title>integrate&#45;&gt;integer_mate</title>
<path fill="none" stroke="black" d="M42.77,-205.49C54.6,-225.72 75.6,-258.65 99.25,-282.29 160.08,-343.08 175.73,-367.42 257.75,-393.29 358.42,-425.03 395,-424.33 495.25,-391.29 515.98,-384.45 536,-370.45 551.16,-357.79"/>
<polygon fill="black" stroke="black" points="553.08,-360.75 558.34,-351.56 548.5,-355.47 553.08,-360.75"/>
</g>
<!-- gauge_cap -->
<g id="node7" class="node">
<title>gauge_cap</title>
<polygon fill="none" stroke="black" points="615.88,-128.29 542.12,-128.29 542.12,-92.29 615.88,-92.29 615.88,-128.29"/>
<text text-anchor="middle" x="579" y="-105.24" font-family="Times,serif" font-size="14.00">gauge_cap</text>
</g>
<!-- integrate&#45;&gt;gauge_cap -->
<g id="edge26" class="edge">
<title>integrate&#45;&gt;gauge_cap</title>
<path fill="none" stroke="black" d="M47.31,-168.83C59.79,-154.2 78.87,-134.15 99.25,-121.29 162.56,-81.34 184,-77.15 257.75,-64.29 361.74,-46.16 393.05,-39.86 495.25,-66.29 511.35,-70.45 527.78,-78.3 541.72,-86.23"/>
<polygon fill="black" stroke="black" points="539.69,-89.1 550.08,-91.2 543.27,-83.08 539.69,-89.1"/>
</g>
<!-- distribution -->
<g id="node9" class="node">
<title>distribution</title>
<polygon fill="none" stroke="black" points="358.12,-136.29 279.88,-136.29 279.88,-100.29 358.12,-100.29 358.12,-136.29"/>
<text text-anchor="middle" x="319" y="-113.24" font-family="Times,serif" font-size="14.00">distribution</text>
</g>
<!-- integrate&#45;&gt;distribution -->
<g id="edge18" class="edge">
<title>integrate&#45;&gt;distribution</title>
<path fill="none" stroke="black" d="M60.43,-168.88C72,-162.03 85.84,-154.82 99.25,-150.29 155.27,-131.34 223.11,-123.61 268.24,-120.46"/>
<polygon fill="black" stroke="black" points="268.22,-123.96 277.97,-119.83 267.77,-116.98 268.22,-123.96"/>
</g>
<!-- move_stl -->
<g id="node10" class="node">
<title>move_stl</title>
<polygon fill="none" stroke="black" points="612.12,-44.29 545.88,-44.29 545.88,-8.29 612.12,-8.29 612.12,-44.29"/>
<text text-anchor="middle" x="579" y="-21.24" font-family="Times,serif" font-size="14.00">move_stl</text>
</g>
<!-- integrate&#45;&gt;move_stl -->
<g id="edge20" class="edge">
<title>integrate&#45;&gt;move_stl</title>
<path fill="none" stroke="black" d="M37.16,-169.18C44.94,-142.18 63.56,-91.92 99.25,-67.29 234.26,25.88 444.31,0.11 534.48,-16.85"/>
<polygon fill="black" stroke="black" points="533.66,-20.25 544.14,-18.73 535,-13.38 533.66,-20.25"/>
</g>
<!-- clmm_pool&#45;&gt;price_provider -->
<g id="edge1" class="edge">
<title>clmm_pool&#45;&gt;price_provider</title>
<path fill="none" stroke="black" d="M487.64,-212.76C490.49,-215.36 493.11,-218.2 495.25,-221.29 531.42,-273.34 506.37,-300.99 531.25,-359.29 538.44,-376.14 548.97,-393.65 558.21,-407.6"/>
<polygon fill="black" stroke="black" points="555.29,-409.52 563.8,-415.83 561.08,-405.59 555.29,-409.52"/>
</g>
<!-- clmm_pool&#45;&gt;integer_mate -->
<g id="edge21" class="edge">
<title>clmm_pool&#45;&gt;integer_mate</title>
<path fill="none" stroke="black" d="M485.33,-212.76C488.81,-215.46 492.2,-218.33 495.25,-221.29 521.35,-246.64 545.52,-280.82 560.91,-304.53"/>
<polygon fill="black" stroke="black" points="557.81,-306.17 566.14,-312.71 563.71,-302.4 557.81,-306.17"/>
</g>
<!-- clmm_pool&#45;&gt;gauge_cap -->
<g id="edge24" class="edge">
<title>clmm_pool&#45;&gt;gauge_cap</title>
<path fill="none" stroke="black" d="M483.36,-175.85C500.57,-163.93 523.2,-148.25 542.01,-135.22"/>
<polygon fill="black" stroke="black" points="543.98,-138.11 550.21,-129.54 540,-132.36 543.98,-138.11"/>
</g>
<!-- clmm_pool&#45;&gt;move_stl -->
<g id="edge19" class="edge">
<title>clmm_pool&#45;&gt;move_stl</title>
<path fill="none" stroke="black" d="M468.36,-175.85C482.59,-153.51 507.72,-114.96 531.25,-83.29 538.64,-73.35 547.12,-62.78 554.81,-53.48"/>
<polygon fill="black" stroke="black" points="557.47,-55.75 561.2,-45.83 552.1,-51.26 557.47,-55.75"/>
</g>
<!-- liquidity_locker_v1&#45;&gt;clmm_pool -->
<g id="edge5" class="edge">
<title>liquidity_locker_v1&#45;&gt;clmm_pool</title>
<path fill="none" stroke="black" d="M369.83,-321.95C373.62,-319.4 377.17,-316.52 380.25,-313.29 410.54,-281.5 389.12,-255.81 416.25,-221.29 416.4,-221.09 416.55,-220.9 416.71,-220.71"/>
<polygon fill="black" stroke="black" points="419.02,-223.36 423.54,-213.77 414.03,-218.45 419.02,-223.36"/>
</g>
<!-- liquidity_locker_v1&#45;&gt;price_provider -->
<g id="edge7" class="edge">
<title>liquidity_locker_v1&#45;&gt;price_provider</title>
<path fill="none" stroke="black" d="M370.05,-358.72C413.1,-374.57 475.21,-397.44 520.33,-414.05"/>
<polygon fill="black" stroke="black" points="519.12,-417.34 529.71,-417.51 521.53,-410.77 519.12,-417.34"/>
</g>
<!-- liquidity_locker_v1&#45;&gt;integer_mate -->
<g id="edge6" class="edge">
<title>liquidity_locker_v1&#45;&gt;integer_mate</title>
<path fill="none" stroke="black" d="M380.49,-338.41C423.92,-337.07 481.94,-335.27 523.85,-333.97"/>
<polygon fill="black" stroke="black" points="523.82,-337.47 533.7,-333.66 523.6,-330.47 523.82,-337.47"/>
</g>
<!-- liquidity_locker_v1&#45;&gt;gauge_cap -->
<g id="edge8" class="edge">
<title>liquidity_locker_v1&#45;&gt;gauge_cap</title>
<path fill="none" stroke="black" d="M380.65,-329.53C417.4,-320.38 463.23,-303.98 495.25,-275.29 536.49,-238.34 559.76,-176.09 570.53,-139.54"/>
<polygon fill="black" stroke="black" points="573.85,-140.66 573.18,-130.09 567.11,-138.77 573.85,-140.66"/>
</g>
<!-- locker_cap -->
<g id="node8" class="node">
<title>locker_cap</title>
<polygon fill="none" stroke="black" points="493.38,-266.29 418.12,-266.29 418.12,-230.29 493.38,-230.29 493.38,-266.29"/>
<text text-anchor="middle" x="455.75" y="-243.24" font-family="Times,serif" font-size="14.00">locker_cap</text>
</g>
<!-- liquidity_locker_v1&#45;&gt;locker_cap -->
<g id="edge9" class="edge">
<title>liquidity_locker_v1&#45;&gt;locker_cap</title>
<path fill="none" stroke="black" d="M365.27,-321.93C370.45,-319.27 375.56,-316.37 380.25,-313.29 398.39,-301.36 399.9,-294.56 416.25,-280.29 418.56,-278.27 420.97,-276.19 423.41,-274.12"/>
<polygon fill="black" stroke="black" points="425.65,-276.81 431.04,-267.69 421.14,-271.46 425.65,-276.81"/>
</g>
<!-- liquidity_locker_v2&#45;&gt;clmm_pool -->
<g id="edge10" class="edge">
<title>liquidity_locker_v2&#45;&gt;clmm_pool</title>
<path fill="none" stroke="black" d="M221.91,-206.99C275.88,-204.05 354.03,-199.78 404.62,-197.02"/>
<polygon fill="black" stroke="black" points="404.61,-200.53 414.41,-196.49 404.23,-193.54 404.61,-200.53"/>
</g>
<!-- liquidity_locker_v2&#45;&gt;price_provider -->
<g id="edge12" class="edge">
<title>liquidity_locker_v2&#45;&gt;price_provider</title>
<path fill="none" stroke="black" d="M165.23,-228.53C174.01,-266.29 199.73,-352.86 257.75,-393.29 335.76,-447.64 450.93,-448.42 519.8,-442.75"/>
<polygon fill="black" stroke="black" points="519.71,-446.27 529.36,-441.88 519.08,-439.3 519.71,-446.27"/>
</g>
<!-- liquidity_locker_v2&#45;&gt;integer_mate -->
<g id="edge11" class="edge">
<title>liquidity_locker_v2&#45;&gt;integer_mate</title>
<path fill="none" stroke="black" d="M166.34,-228.66C176.54,-263.22 203.91,-337.14 257.75,-367.29 343.04,-415.04 461.14,-381.28 527.49,-355.05"/>
<polygon fill="black" stroke="black" points="528.73,-358.32 536.68,-351.32 526.1,-351.84 528.73,-358.32"/>
</g>
<!-- liquidity_locker_v2&#45;&gt;gauge_cap -->
<g id="edge13" class="edge">
<title>liquidity_locker_v2&#45;&gt;gauge_cap</title>
<path fill="none" stroke="black" d="M169.81,-191.89C183.54,-164.04 213.87,-112.23 257.75,-91.29 346.84,-48.76 466.08,-74.23 531.02,-93.93"/>
<polygon fill="black" stroke="black" points="529.69,-97.18 540.28,-96.82 531.78,-90.5 529.69,-97.18"/>
</g>
<!-- liquidity_locker_v2&#45;&gt;locker_cap -->
<g id="edge15" class="edge">
<title>liquidity_locker_v2&#45;&gt;locker_cap</title>
<path fill="none" stroke="black" d="M221.91,-218.11C276.66,-225.21 356.29,-235.53 406.79,-242.07"/>
<polygon fill="black" stroke="black" points="406.17,-245.52 416.54,-243.34 407.07,-238.58 406.17,-245.52"/>
</g>
<!-- liquidity_locker_v2&#45;&gt;distribution -->
<g id="edge14" class="edge">
<title>liquidity_locker_v2&#45;&gt;distribution</title>
<path fill="none" stroke="black" d="M192.79,-191.89C217,-177.66 250.71,-157.84 277.06,-142.36"/>
<polygon fill="black" stroke="black" points="278.61,-145.5 285.46,-137.42 275.06,-139.47 278.61,-145.5"/>
</g>
<!-- distribution&#45;&gt;clmm_pool -->
<g id="edge16" class="edge">
<title>distribution&#45;&gt;clmm_pool</title>
<path fill="none" stroke="black" d="M355.19,-136.63C363.45,-141.04 372.19,-145.77 380.25,-150.29 391.49,-156.59 403.55,-163.6 414.64,-170.15"/>
<polygon fill="black" stroke="black" points="412.8,-173.12 423.18,-175.22 416.37,-167.11 412.8,-173.12"/>
</g>
<!-- distribution&#45;&gt;integer_mate -->
<g id="edge23" class="edge">
<title>distribution&#45;&gt;integer_mate</title>
<path fill="none" stroke="black" d="M358.27,-120.16C396.8,-123.9 456,-134.94 495.25,-167.29 538.1,-202.6 560.85,-265.69 571.08,-302.78"/>
<polygon fill="black" stroke="black" points="567.67,-303.59 573.59,-312.38 574.45,-301.82 567.67,-303.59"/>
</g>
<!-- distribution&#45;&gt;gauge_cap -->
<g id="edge25" class="edge">
<title>distribution&#45;&gt;gauge_cap</title>
<path fill="none" stroke="black" d="M358.35,-117.1C404.22,-115.68 481.02,-113.29 530.58,-111.76"/>
<polygon fill="black" stroke="black" points="530.54,-115.26 540.43,-111.45 530.33,-108.26 530.54,-115.26"/>
</g>
<!-- distribtuion -->
<g id="node11" class="node">
<title>distribtuion</title>
<polygon fill="none" stroke="black" points="358.12,-304.29 279.88,-304.29 279.88,-268.29 358.12,-268.29 358.12,-304.29"/>
<text text-anchor="middle" x="319" y="-281.24" font-family="Times,serif" font-size="14.00">distribtuion</text>
</g>
<!-- distribtuion&#45;&gt;locker_cap -->
<g id="edge27" class="edge">
<title>distribtuion&#45;&gt;locker_cap</title>
<path fill="none" stroke="black" d="M358.61,-275.4C373.78,-271.12 391.34,-266.17 407.27,-261.68"/>
<polygon fill="black" stroke="black" points="407.85,-265.15 416.53,-259.07 405.95,-258.41 407.85,-265.15"/>
</g>
</g>
</svg>
