<?xml version="1.0" encoding="UTF-8" standalone="no"?>
<!DOCTYPE svg PUBLIC "-//W3C//DTD SVG 1.1//EN"
 "http://www.w3.org/Graphics/SVG/1.1/DTD/svg11.dtd">
<!-- Generated by graphviz version 12.2.1 (20241206.2353)
 -->
<!-- Title: Dependencies Pages: 1 -->
<svg width="455pt" height="197pt"
 viewBox="0.00 0.00 455.25 197.00" xmlns="http://www.w3.org/2000/svg" xmlns:xlink="http://www.w3.org/1999/xlink">
<g id="graph0" class="graph" transform="scale(1 1) rotate(0) translate(4 193)">
<title>Dependencies</title>
<polygon fill="white" stroke="none" points="-4,4 -4,-193 451.25,-193 451.25,4 -4,4"/>
<!-- fullsail_config -->
<g id="node1" class="node">
<title>fullsail_config</title>
<polygon fill="none" stroke="black" points="94.75,-66 0,-66 0,-30 94.75,-30 94.75,-66"/>
<text text-anchor="middle" x="47.38" y="-42.95" font-family="Times,serif" font-size="14.00">fullsail_config</text>
</g>
<!-- integrate -->
<g id="node2" class="node">
<title>integrate</title>
<polygon fill="none" stroke="black" points="79,-120 15.75,-120 15.75,-84 79,-84 79,-120"/>
<text text-anchor="middle" x="47.38" y="-96.95" font-family="Times,serif" font-size="14.00">integrate</text>
</g>
<!-- distribution -->
<g id="node3" class="node">
<title>distribution</title>
<polygon fill="none" stroke="black" points="209,-74 130.75,-74 130.75,-38 209,-38 209,-74"/>
<text text-anchor="middle" x="169.88" y="-50.95" font-family="Times,serif" font-size="14.00">distribution</text>
</g>
<!-- integrate&#45;&gt;distribution -->
<g id="edge3" class="edge">
<title>integrate&#45;&gt;distribution</title>
<path fill="none" stroke="black" d="M79.41,-90.15C91.73,-85.45 106.21,-79.92 119.89,-74.7"/>
<polygon fill="black" stroke="black" points="121.12,-77.98 129.21,-71.14 118.62,-71.44 121.12,-77.98"/>
</g>
<!-- clmm_pool -->
<g id="node4" class="node">
<title>clmm_pool</title>
<polygon fill="none" stroke="black" points="324,-120 245,-120 245,-84 324,-84 324,-120"/>
<text text-anchor="middle" x="284.5" y="-96.95" font-family="Times,serif" font-size="14.00">clmm_pool</text>
</g>
<!-- integrate&#45;&gt;clmm_pool -->
<g id="edge2" class="edge">
<title>integrate&#45;&gt;clmm_pool</title>
<path fill="none" stroke="black" d="M79.11,-102C118.24,-102 186.37,-102 233.14,-102"/>
<polygon fill="black" stroke="black" points="233.02,-105.5 243.02,-102 233.02,-98.5 233.02,-105.5"/>
</g>
<!-- move_stl -->
<g id="node5" class="node">
<title>move_stl</title>
<polygon fill="none" stroke="black" points="436.75,-189 370.5,-189 370.5,-153 436.75,-153 436.75,-189"/>
<text text-anchor="middle" x="403.62" y="-165.95" font-family="Times,serif" font-size="14.00">move_stl</text>
</g>
<!-- integrate&#45;&gt;move_stl -->
<g id="edge5" class="edge">
<title>integrate&#45;&gt;move_stl</title>
<path fill="none" stroke="black" d="M79.49,-119.75C94.52,-127.52 113.09,-136 130.75,-141 209.07,-163.19 304.41,-169.11 358.85,-170.61"/>
<polygon fill="black" stroke="black" points="358.56,-174.1 368.64,-170.83 358.73,-167.1 358.56,-174.1"/>
</g>
<!-- integer_mate -->
<g id="node6" class="node">
<title>integer_mate</title>
<polygon fill="none" stroke="black" points="447.25,-120 360,-120 360,-84 447.25,-84 447.25,-120"/>
<text text-anchor="middle" x="403.62" y="-96.95" font-family="Times,serif" font-size="14.00">integer_mate</text>
</g>
<!-- integrate&#45;&gt;integer_mate -->
<g id="edge7" class="edge">
<title>integrate&#45;&gt;integer_mate</title>
<path fill="none" stroke="black" d="M79.14,-110.25C130.26,-122.8 235.79,-143.72 324,-129 332.12,-127.64 340.53,-125.55 348.69,-123.12"/>
<polygon fill="black" stroke="black" points="349.72,-126.46 358.18,-120.08 347.59,-119.8 349.72,-126.46"/>
</g>
<!-- gauge_cap -->
<g id="node7" class="node">
<title>gauge_cap</title>
<polygon fill="none" stroke="black" points="440.5,-36 366.75,-36 366.75,0 440.5,0 440.5,-36"/>
<text text-anchor="middle" x="403.62" y="-12.95" font-family="Times,serif" font-size="14.00">gauge_cap</text>
</g>
<!-- integrate&#45;&gt;gauge_cap -->
<g id="edge11" class="edge">
<title>integrate&#45;&gt;gauge_cap</title>
<path fill="none" stroke="black" d="M79.43,-86.14C84.79,-82.79 90.12,-79.04 94.75,-75 114.32,-57.94 107.65,-40.84 130.75,-29 202.13,7.58 298.43,0.48 355.19,-8.46"/>
<polygon fill="black" stroke="black" points="354.4,-11.88 364.84,-10.07 355.56,-4.97 354.4,-11.88"/>
</g>
<!-- distribution&#45;&gt;clmm_pool -->
<g id="edge1" class="edge">
<title>distribution&#45;&gt;clmm_pool</title>
<path fill="none" stroke="black" d="M209.32,-71.7C217.38,-75 225.99,-78.51 234.39,-81.94"/>
<polygon fill="black" stroke="black" points="232.86,-85.1 243.45,-85.64 235.51,-78.62 232.86,-85.1"/>
</g>
<!-- distribution&#45;&gt;integer_mate -->
<g id="edge8" class="edge">
<title>distribution&#45;&gt;integer_mate</title>
<path fill="none" stroke="black" d="M209.33,-58.55C240.53,-61.15 285.5,-66.1 324,-75 332.21,-76.9 340.77,-79.34 349.09,-81.97"/>
<polygon fill="black" stroke="black" points="347.81,-85.23 358.4,-85.04 350,-78.58 347.81,-85.23"/>
</g>
<!-- distribution&#45;&gt;gauge_cap -->
<g id="edge10" class="edge">
<title>distribution&#45;&gt;gauge_cap</title>
<path fill="none" stroke="black" d="M209.3,-48.47C220.77,-46.3 233.38,-43.98 245,-42 281.94,-35.7 323.89,-29.35 355.22,-24.77"/>
<polygon fill="black" stroke="black" points="355.36,-28.28 364.76,-23.38 354.36,-21.36 355.36,-28.28"/>
</g>
<!-- clmm_pool&#45;&gt;move_stl -->
<g id="edge4" class="edge">
<title>clmm_pool&#45;&gt;move_stl</title>
<path fill="none" stroke="black" d="M316.89,-120.49C330.65,-128.6 346.99,-138.22 361.69,-146.89"/>
<polygon fill="black" stroke="black" points="359.86,-149.87 370.25,-151.93 363.41,-143.84 359.86,-149.87"/>
</g>
<!-- clmm_pool&#45;&gt;integer_mate -->
<g id="edge6" class="edge">
<title>clmm_pool&#45;&gt;integer_mate</title>
<path fill="none" stroke="black" d="M324.18,-102C331.87,-102 340.09,-102 348.21,-102"/>
<polygon fill="black" stroke="black" points="348.03,-105.5 358.03,-102 348.03,-98.5 348.03,-105.5"/>
</g>
<!-- clmm_pool&#45;&gt;gauge_cap -->
<g id="edge9" class="edge">
<title>clmm_pool&#45;&gt;gauge_cap</title>
<path fill="none" stroke="black" d="M311.2,-83.57C327.83,-71.64 349.69,-55.96 367.86,-42.93"/>
<polygon fill="black" stroke="black" points="369.67,-45.95 375.75,-37.27 365.59,-40.26 369.67,-45.95"/>
</g>
</g>
</svg>
