<?xml version="1.0" encoding="UTF-8" standalone="no"?>
<!DOCTYPE svg PUBLIC "-//W3C//DTD SVG 1.1//EN"
 "http://www.w3.org/Graphics/SVG/1.1/DTD/svg11.dtd">
<!-- Generated by graphviz version 12.2.1 (20241206.2353)
 -->
<!-- Title: Dependencies Pages: 1 -->
<svg width="432pt" height="250pt"
 viewBox="0.00 0.00 432.00 249.68" xmlns="http://www.w3.org/2000/svg" xmlns:xlink="http://www.w3.org/1999/xlink">
<g id="graph0" class="graph" transform="scale(1 1) rotate(0) translate(4 245.68)">
<title>Dependencies</title>
<polygon fill="white" stroke="none" points="-4,4 -4,-245.68 428,-245.68 428,4 -4,4"/>
<!-- integrate -->
<g id="node1" class="node">
<title>integrate</title>
<polygon fill="none" stroke="black" points="63.25,-140.68 0,-140.68 0,-104.68 63.25,-104.68 63.25,-140.68"/>
<text text-anchor="middle" x="31.62" y="-117.63" font-family="Times,serif" font-size="14.00">integrate</text>
</g>
<!-- clmm_pool -->
<g id="node2" class="node">
<title>clmm_pool</title>
<polygon fill="none" stroke="black" points="292.5,-163.68 213.5,-163.68 213.5,-127.68 292.5,-127.68 292.5,-163.68"/>
<text text-anchor="middle" x="253" y="-140.63" font-family="Times,serif" font-size="14.00">clmm_pool</text>
</g>
<!-- integrate&#45;&gt;clmm_pool -->
<g id="edge4" class="edge">
<title>integrate&#45;&gt;clmm_pool</title>
<path fill="none" stroke="black" d="M63.59,-125.93C99.51,-129.69 159.23,-135.95 201.81,-140.42"/>
<polygon fill="black" stroke="black" points="201.24,-143.88 211.55,-141.44 201.97,-136.91 201.24,-143.88"/>
</g>
<!-- price_provider -->
<g id="node3" class="node">
<title>price_provider</title>
<polygon fill="none" stroke="black" points="424,-241.68 328.5,-241.68 328.5,-205.68 424,-205.68 424,-241.68"/>
<text text-anchor="middle" x="376.25" y="-218.63" font-family="Times,serif" font-size="14.00">price_provider</text>
</g>
<!-- integrate&#45;&gt;price_provider -->
<g id="edge2" class="edge">
<title>integrate&#45;&gt;price_provider</title>
<path fill="none" stroke="black" d="M52.43,-140.95C64.96,-151.52 82,-164.18 99.25,-171.68 170.26,-202.56 259.38,-215.14 316.82,-220.24"/>
<polygon fill="black" stroke="black" points="316.46,-223.72 326.71,-221.06 317.04,-216.74 316.46,-223.72"/>
</g>
<!-- distribution -->
<g id="node4" class="node">
<title>distribution</title>
<polygon fill="none" stroke="black" points="177.5,-71.68 99.25,-71.68 99.25,-35.68 177.5,-35.68 177.5,-71.68"/>
<text text-anchor="middle" x="138.38" y="-48.63" font-family="Times,serif" font-size="14.00">distribution</text>
</g>
<!-- integrate&#45;&gt;distribution -->
<g id="edge5" class="edge">
<title>integrate&#45;&gt;distribution</title>
<path fill="none" stroke="black" d="M60.7,-104.19C72.77,-96.24 87.06,-86.82 100.01,-78.29"/>
<polygon fill="black" stroke="black" points="101.9,-81.24 108.33,-72.81 98.05,-75.39 101.9,-81.24"/>
</g>
<!-- move_stl -->
<g id="node5" class="node">
<title>move_stl</title>
<polygon fill="none" stroke="black" points="409.38,-182.68 343.12,-182.68 343.12,-146.68 409.38,-146.68 409.38,-182.68"/>
<text text-anchor="middle" x="376.25" y="-159.63" font-family="Times,serif" font-size="14.00">move_stl</text>
</g>
<!-- integrate&#45;&gt;move_stl -->
<g id="edge7" class="edge">
<title>integrate&#45;&gt;move_stl</title>
<path fill="none" stroke="black" d="M63.49,-135.32C74.64,-139.6 87.4,-144.18 99.25,-147.68 182.31,-172.21 206,-176.85 292.5,-172.68 305.19,-172.07 318.94,-170.93 331.52,-169.7"/>
<polygon fill="black" stroke="black" points="331.58,-173.21 341.18,-168.71 330.87,-166.25 331.58,-173.21"/>
</g>
<!-- integer_mate -->
<g id="node6" class="node">
<title>integer_mate</title>
<polygon fill="none" stroke="black" points="419.88,-41.68 332.62,-41.68 332.62,-5.68 419.88,-5.68 419.88,-41.68"/>
<text text-anchor="middle" x="376.25" y="-18.63" font-family="Times,serif" font-size="14.00">integer_mate</text>
</g>
<!-- integrate&#45;&gt;integer_mate -->
<g id="edge9" class="edge">
<title>integrate&#45;&gt;integer_mate</title>
<path fill="none" stroke="black" d="M39.15,-104.53C48.49,-81.62 68.06,-43.21 99.25,-26.68 168.91,10.25 263.03,0.95 321.4,-10.41"/>
<polygon fill="black" stroke="black" points="320.6,-13.82 331.1,-12.39 322,-6.96 320.6,-13.82"/>
</g>
<!-- gauge_cap -->
<g id="node7" class="node">
<title>gauge_cap</title>
<polygon fill="none" stroke="black" points="413.12,-117.68 339.38,-117.68 339.38,-81.68 413.12,-81.68 413.12,-117.68"/>
<text text-anchor="middle" x="376.25" y="-94.63" font-family="Times,serif" font-size="14.00">gauge_cap</text>
</g>
<!-- integrate&#45;&gt;gauge_cap -->
<g id="edge13" class="edge">
<title>integrate&#45;&gt;gauge_cap</title>
<path fill="none" stroke="black" d="M63.63,-120.6C123.71,-116.56 256.31,-107.66 327.63,-102.88"/>
<polygon fill="black" stroke="black" points="327.7,-106.38 337.44,-102.22 327.23,-99.39 327.7,-106.38"/>
</g>
<!-- clmm_pool&#45;&gt;price_provider -->
<g id="edge1" class="edge">
<title>clmm_pool&#45;&gt;price_provider</title>
<path fill="none" stroke="black" d="M282.73,-164.16C299.04,-174.65 319.65,-187.91 337.28,-199.25"/>
<polygon fill="black" stroke="black" points="335.15,-202.04 345.45,-204.51 338.93,-196.15 335.15,-202.04"/>
</g>
<!-- clmm_pool&#45;&gt;move_stl -->
<g id="edge6" class="edge">
<title>clmm_pool&#45;&gt;move_stl</title>
<path fill="none" stroke="black" d="M292.7,-151.74C305.11,-153.69 318.95,-155.86 331.69,-157.85"/>
<polygon fill="black" stroke="black" points="331.09,-161.3 341.51,-159.39 332.18,-154.39 331.09,-161.3"/>
</g>
<!-- clmm_pool&#45;&gt;integer_mate -->
<g id="edge8" class="edge">
<title>clmm_pool&#45;&gt;integer_mate</title>
<path fill="none" stroke="black" d="M272.15,-127.41C292.51,-106.93 325.71,-73.53 348.92,-50.17"/>
<polygon fill="black" stroke="black" points="351.34,-52.7 355.91,-43.14 346.37,-47.77 351.34,-52.7"/>
</g>
<!-- clmm_pool&#45;&gt;gauge_cap -->
<g id="edge11" class="edge">
<title>clmm_pool&#45;&gt;gauge_cap</title>
<path fill="none" stroke="black" d="M292.7,-131C304.05,-126.69 316.59,-121.93 328.4,-117.45"/>
<polygon fill="black" stroke="black" points="329.46,-120.8 337.56,-113.98 326.97,-114.25 329.46,-120.8"/>
</g>
<!-- distribution&#45;&gt;clmm_pool -->
<g id="edge3" class="edge">
<title>distribution&#45;&gt;clmm_pool</title>
<path fill="none" stroke="black" d="M161.9,-72.08C178.78,-85.86 202.09,-104.91 220.77,-120.17"/>
<polygon fill="black" stroke="black" points="218.39,-122.74 228.35,-126.36 222.82,-117.32 218.39,-122.74"/>
</g>
<!-- distribution&#45;&gt;integer_mate -->
<g id="edge10" class="edge">
<title>distribution&#45;&gt;integer_mate</title>
<path fill="none" stroke="black" d="M177.8,-48.79C216.74,-43.84 277.34,-36.13 321.14,-30.56"/>
<polygon fill="black" stroke="black" points="321.47,-34.05 330.95,-29.31 320.59,-27.1 321.47,-34.05"/>
</g>
<!-- distribution&#45;&gt;gauge_cap -->
<g id="edge12" class="edge">
<title>distribution&#45;&gt;gauge_cap</title>
<path fill="none" stroke="black" d="M177.8,-61.17C218.78,-69.16 283.74,-81.83 327.87,-90.44"/>
<polygon fill="black" stroke="black" points="327.2,-93.87 337.68,-92.35 328.54,-87 327.2,-93.87"/>
</g>
</g>
</svg>
